<svg width="96" height="21" viewBox="0 0 96 21" fill="none" xmlns="http://www.w3.org/2000/svg">
<path fill-rule="evenodd" clip-rule="evenodd" d="M49.4392 4.55135C50.8666 1.84451 53.7032 0 56.9695 0C60.8551 0 64.1327 2.61043 65.153 6.17765C67.6512 6.27197 69.8739 7.44573 71.3706 9.24722C72.4144 8.78921 73.5676 8.5351 74.7799 8.5351C79.0474 8.5351 82.5815 11.6838 83.1973 15.7905C84.4262 15.1001 85.8433 14.7065 87.3521 14.7065C91.1395 14.7065 94.3492 17.1866 95.4539 20.6154H0.936241C2.04095 17.1866 5.25066 14.7065 9.03807 14.7065C9.14854 14.7065 9.25851 14.7087 9.36795 14.7128C10.9043 12.4876 13.4683 11.03 16.3719 11.03C17.9224 11.03 19.376 11.4456 20.6281 12.1718C21.0002 11.956 21.3902 11.7676 21.7951 11.6094C23.0318 8.42676 26.1181 6.17151 29.7297 6.17151C31.0926 6.17151 32.3806 6.49263 33.5227 7.06353C34.2182 3.051 37.7082 0 41.909 0C45.1753 0 48.0119 1.84451 49.4392 4.55135Z" fill="#EBFBFF"/>
</svg>
