<svg width="751" height="500" viewBox="0 0 751 500" fill="none" xmlns="http://www.w3.org/2000/svg">
<g clip-path="url(#clip0)">
<rect width="751" height="500" fill="url(#paint0_linear)"/>
<rect y="458" width="757" height="42" fill="#F7CF00"/>
<mask id="mask0" mask-type="alpha" maskUnits="userSpaceOnUse" x="96" y="298" width="6" height="64">
<path d="M99.0553 325.056C98.7931 332.918 100.134 352.807 101.008 360.959L97.5692 361.43C96.9864 360.386 96.3356 343.412 96.083 335.055C95.9432 333.085 96.0248 323.571 96.6367 316.362C97.2486 309.152 99.0262 301.822 99.9004 298.682L101.416 299.153C99.4808 302.892 99.3176 317.195 99.0553 325.056Z" fill="#92742E"/>
</mask>
<g mask="url(#mask0)">
<path d="M99.0553 325.056C98.7931 332.918 100.134 352.807 101.008 360.959L97.5692 361.43C96.9864 360.386 96.3356 343.412 96.083 335.055C95.9432 333.085 96.0248 323.571 96.6367 316.362C97.2486 309.152 99.0262 301.822 99.9004 298.682L101.416 299.153C99.4808 302.892 99.3176 317.195 99.0553 325.056Z" fill="#92742E"/>
<path fill-rule="evenodd" clip-rule="evenodd" d="M96.0124 355.561C96.1724 357.434 97.4476 358.894 98.997 358.894C100.546 358.894 101.821 357.434 101.981 355.561C101.993 355.692 101.998 355.825 101.998 355.959C101.998 358.02 100.655 359.691 98.997 359.691C97.3393 359.691 95.9955 358.02 95.9955 355.959C95.9955 355.825 96.0013 355.692 96.0124 355.561Z" fill="#715219"/>
<path fill-rule="evenodd" clip-rule="evenodd" d="M95.4297 349.474C95.5896 351.348 96.8648 352.807 98.4142 352.807C99.9636 352.807 101.239 351.348 101.399 349.474C101.41 349.605 101.416 349.738 101.416 349.873C101.416 351.934 100.072 353.604 98.4142 353.604C96.7565 353.604 95.4128 351.934 95.4128 349.873C95.4128 349.738 95.4185 349.605 95.4297 349.474Z" fill="#715219"/>
<path fill-rule="evenodd" clip-rule="evenodd" d="M94.4389 343.46C94.5989 345.334 95.8741 346.793 97.4234 346.793C98.9728 346.793 100.248 345.334 100.408 343.46C100.419 343.591 100.425 343.724 100.425 343.859C100.425 345.92 99.0811 347.59 97.4234 347.59C95.7658 347.59 94.422 345.92 94.422 343.859C94.422 343.724 94.4277 343.591 94.4389 343.46Z" fill="#715219"/>
<path fill-rule="evenodd" clip-rule="evenodd" d="M94.4389 336.36C94.5989 338.233 95.8741 339.693 97.4234 339.693C98.9728 339.693 100.248 338.233 100.408 336.36C100.419 336.491 100.425 336.624 100.425 336.758C100.425 338.819 99.0811 340.49 97.4234 340.49C95.7658 340.49 94.422 338.819 94.422 336.758C94.422 336.624 94.4277 336.491 94.4389 336.36Z" fill="#715219"/>
<path fill-rule="evenodd" clip-rule="evenodd" d="M94.4389 330.056C94.5989 331.929 95.8741 333.389 97.4234 333.389C98.9728 333.389 100.248 331.929 100.408 330.056C100.419 330.187 100.425 330.32 100.425 330.455C100.425 332.515 99.0811 334.186 97.4234 334.186C95.7658 334.186 94.422 332.515 94.422 330.455C94.422 330.32 94.4277 330.187 94.4389 330.056Z" fill="#715219"/>
<path fill-rule="evenodd" clip-rule="evenodd" d="M94.4389 324.259C94.5989 326.133 95.8741 327.592 97.4234 327.592C98.9728 327.592 100.248 326.133 100.408 324.259C100.419 324.39 100.425 324.523 100.425 324.658C100.425 326.719 99.0811 328.389 97.4234 328.389C95.7658 328.389 94.422 326.719 94.422 324.658C94.422 324.523 94.4277 324.39 94.4389 324.259Z" fill="#715219"/>
<path fill-rule="evenodd" clip-rule="evenodd" d="M94.3223 318.463C94.4823 320.336 95.7575 321.796 97.3069 321.796C98.8562 321.796 100.131 320.336 100.291 318.463C100.303 318.594 100.308 318.727 100.308 318.861C100.308 320.922 98.9645 322.593 97.3069 322.593C95.6492 322.593 94.3054 320.922 94.3054 318.861C94.3054 318.727 94.3112 318.594 94.3223 318.463Z" fill="#715219"/>
<path fill-rule="evenodd" clip-rule="evenodd" d="M94.3223 312.666C94.4823 314.54 95.7575 315.999 97.3069 315.999C98.8562 315.999 100.131 314.54 100.291 312.666C100.303 312.797 100.308 312.93 100.308 313.065C100.308 315.126 98.9645 316.796 97.3069 316.796C95.6492 316.796 94.3054 315.126 94.3054 313.065C94.3054 312.93 94.3112 312.797 94.3223 312.666Z" fill="#715219"/>
<path fill-rule="evenodd" clip-rule="evenodd" d="M95.4297 307.16C95.5896 309.033 96.8648 310.493 98.4142 310.493C99.9636 310.493 101.239 309.033 101.399 307.16C101.41 307.291 101.416 307.424 101.416 307.558C101.416 309.619 100.072 311.29 98.4142 311.29C96.7565 311.29 95.4128 309.619 95.4128 307.558C95.4128 307.424 95.4185 307.291 95.4297 307.16Z" fill="#715219"/>
<path fill-rule="evenodd" clip-rule="evenodd" d="M97.4112 302.015C97.5712 303.889 98.8464 305.348 100.396 305.348C101.945 305.348 103.22 303.889 103.38 302.015C103.391 302.146 103.397 302.279 103.397 302.414C103.397 304.475 102.053 306.145 100.396 306.145C98.7381 306.145 97.3943 304.475 97.3943 302.414C97.3943 302.279 97.4 302.146 97.4112 302.015Z" fill="#715219"/>
<path fill-rule="evenodd" clip-rule="evenodd" d="M97.643 297.958C97.7906 299.831 98.9667 301.291 100.396 301.291C101.825 301.291 103.001 299.831 103.148 297.958C103.159 298.089 103.164 298.222 103.164 298.356C103.164 300.417 101.925 302.088 100.396 302.088C98.8668 302.088 97.6274 300.417 97.6274 298.356C97.6274 298.222 97.6327 298.089 97.643 297.958Z" fill="#715219"/>
</g>
<path d="M103.018 281.51C103.438 281.887 104.048 286.473 104.3 288.72L101.357 296.617C99.6672 291.968 96.3919 282.662 96.8115 282.633C97.336 282.597 99.0844 284.155 98.9387 283.648C98.8221 283.242 97.3554 282.054 96.6366 281.51L96.1412 280.133C96.4618 280.133 97.1029 280.097 97.1029 279.952C97.1029 279.807 96.9086 279.699 96.8115 279.662H95.879L95.4419 278.322C95.8615 278.177 96.9377 278.262 97.4234 278.322C94.9465 277.09 95.0048 277.924 95.0048 277.597C95.0048 277.337 93.742 275.363 93.1107 274.409C95.8498 273.323 97.9479 274.735 98.3268 274.808C98.7056 274.88 99.0844 278.141 99.201 277.924C99.2942 277.75 99.1621 276.112 99.0844 275.315L101.095 277.235L100.891 280.133L101.095 280.387L101.532 277.924L102.698 280.387L102.028 283.14L101.94 284.734L103.018 281.51Z" fill="#5B8404"/>
<path d="M101.173 298.486C101.175 298.54 101.178 298.594 101.18 298.646C101.185 298.6 101.183 298.546 101.173 298.486C101.016 294.881 100.415 287.795 99.1982 287.053L98.8485 287.633C98.8388 287.029 98.8485 285.93 98.5571 285.459C98.2657 284.988 96.8961 283.551 96.1967 282.633L96.8378 285.604L96.1967 284.372L95.5265 282.017L93.545 280.604L94.3318 282.633C94.1472 282.452 93.6149 281.742 92.9622 280.351L90.5727 279.626C90.9904 280.134 91.8257 281.235 91.8257 281.583C91.8257 282.017 90.2521 279.626 89.9316 279.626C89.6111 279.626 86.2891 280.061 85.0943 281.148L87.8918 282.923C88.5037 282.73 89.8617 282.401 90.3978 282.633L88.6203 283.285L89.6111 284.119L90.5727 283.793L90.9224 284.119L90.0482 284.517L91.3595 285.604C91.9617 285.556 93.3468 285.618 94.0695 286.256H92.0006L93.545 287.633L94.3318 287.415L94.594 287.85L93.545 288.502C96.0488 291.267 100.928 296.971 101.173 298.486Z" fill="#86AB39"/>
<path d="M96.8115 296.495C97.0146 296.457 100.729 299.46 100.962 299.65C101.217 297.582 100.681 295.494 100.381 294.709C98.8963 290.431 96.2607 288.625 95.5172 288.18C95.4742 288.142 95.4315 288.113 95.3894 288.095C95.2535 288.039 95.3162 288.06 95.5172 288.18C95.9929 288.603 96.513 290.197 96.7196 290.763C96.3341 290.166 94.8307 288.383 94.0254 287.449L92.2551 286.993L92.6614 288.171L92.3422 288.095L91.3264 286.803L88.8305 286.727L91.1813 288.741C91.2297 288.995 91.2974 289.41 91.1813 289.046C91.0652 288.681 88.6758 287.601 87.4956 287.107L85.7252 287.829L86.6249 288.856H86.1606L85.2028 288.133C84.6224 288.501 83.5196 289.236 83.7518 289.236C83.9839 289.236 85.3576 290.072 86.0155 290.49C85.1255 290.287 83.2584 289.889 82.9101 289.92C82.5619 289.95 81.1785 292.01 80.5304 293.036C80.5536 293.249 83.655 293.911 85.2028 294.215C85.2957 293.819 86.3831 292.808 86.9151 292.352L85.8413 294.215L87.7567 294.519C88.1437 293.987 88.9408 292.892 89.0337 292.77C89.1266 292.649 89.2852 292.72 89.3529 292.77L88.2211 294.519L89.8173 294.709C90.2719 294.215 91.2103 293.188 91.3264 293.036C91.4359 292.893 92.1242 292.814 92.3552 292.785C92.0751 292.927 91.0312 294.102 90.5138 294.709C92.0461 294.861 92.642 295.203 92.7485 295.355L93.7642 294.519L94.0254 294.709L93.503 295.355L95.0412 295.697C95.6216 295.636 96.9082 296.026 97.479 296.229C97.1888 296.33 96.649 296.525 96.8115 296.495Z" fill="#6B9C05"/>
<path d="M101.063 299.671C102.297 296.736 105.009 290.773 105.988 290.396C105.619 290.469 104.816 290.664 104.56 290.867C104.304 291.07 105.075 290.3 105.492 289.889L106.571 289.418L107.503 288.005L106.629 287.933L106.949 287.643H107.794L109.018 286.013C108.429 286.077 107.277 286.223 106.903 286.335C107.329 286.135 108.879 285.362 109.747 284.926L110.621 283.694L109.747 283.368L110.126 283.187H111.146L111.816 281.991H109.747C109.368 281.991 112.282 281.194 112.457 281.194C112.632 281.194 114.118 278.368 114.234 278.368C114.351 278.368 110.825 278.079 109.747 278.948L108.552 281.194L109.018 279.238L107.066 280.615L106.571 282.933H106.337L106.629 280.904L105.055 282.39L104.735 284.926L104.269 286.013L104.56 283.187L103.423 284.926L102.52 286.375V287.788H102.258L102.054 287.136C101.549 288.633 100.638 291.896 101.034 292.968L100.626 292.389C100.713 294.707 100.923 299.41 101.063 299.671Z" fill="#6B9C05"/>
<path d="M101.212 299.66C102.494 298.393 105.128 295.857 105.408 295.857C105.688 295.857 105.214 295.663 104.942 295.567L108.934 293.357L108.293 293.031L108.671 292.777L109.662 293.031L111.673 291.582C111.168 291.256 110.059 290.603 109.662 290.603C109.266 290.603 110.138 290.483 110.624 290.422L112.518 291.292L113.888 290.603L112.372 289.372H112.839L114.296 290.422L116.015 289.661L114.674 288.14C115.286 288.454 116.522 289.14 116.568 289.372C116.615 289.604 119.618 288.333 121.114 287.669C120.405 286.787 118.871 285.024 118.404 285.024C117.579 285.218 115.822 285.705 115.403 286.111C115.927 285.604 117.07 284.575 117.443 284.517L115.753 283.865L114.674 284.879H114.412L114.995 283.684H112.984C112.08 284.389 110.201 285.942 109.847 286.564C110.332 285.688 111.275 284.052 111.593 283.737C111.679 283.703 111.713 283.684 111.673 283.684C111.655 283.684 111.627 283.702 111.593 283.737C111.174 283.903 109.524 284.429 109.138 284.879L108.293 286.872V285.35C108.293 284.879 102.086 292.632 101.212 296.327C101.095 296.968 100.932 298.53 101.212 299.66Z" fill="#5B8404"/>
<path d="M101.183 299.661C102.416 298.876 105.041 297.393 105.67 297.74V297.306C106.447 297.559 108.03 298.11 108.147 298.284C108.565 298.308 109.429 298.378 109.546 298.465C109.691 298.574 109.313 297.74 109.225 297.74C109.155 297.74 109.41 297.644 109.546 297.596L110.245 298.646C110.915 298.743 112.302 298.972 112.489 299.117C112.712 299.291 111.466 296.774 111.206 296.559C111.525 296.722 112.117 297.048 112.139 297.161C112.168 297.306 113.072 299.081 113.072 299.298L114.529 299.697C114.402 299.093 114.121 297.856 114.004 297.74C113.888 297.625 114.13 297.692 114.266 297.74C114.49 298.356 114.937 299.632 114.937 299.805L116.627 300.276C116.539 299.624 116.33 298.306 116.19 298.248L116.423 298.32C116.695 298.936 117.239 300.218 117.239 300.421C117.239 300.624 120.25 301.134 121.755 301.363C121.493 300.192 120.875 297.798 120.502 297.596C119.774 297.354 118.148 296.856 117.472 296.799C118.2 296.702 119.704 296.538 119.89 296.654L118.929 295.168L117.618 295.349L117.472 295.168L118.404 294.516L116.976 293.248C115.877 293.271 113.659 293.363 113.233 293.55C113.998 293.132 115.539 292.35 115.927 292.379C115.218 292.113 113.754 291.582 113.567 291.582C113.149 291.847 112.291 292.379 112.197 292.379C112.104 292.379 112.003 292.282 111.964 292.234L112.635 291.364H111.527C108.633 292.91 102.756 296.161 102.406 296.799C101.969 297.596 101.183 298.9 101.183 299.661Z" fill="#6B9C05"/>
<path d="M96.8406 301.11C97.7964 300.618 100.133 299.866 101.182 299.552L101.037 298.611C98.2626 296.06 94.0529 295.471 92.2947 295.495C92.7057 295.58 93.8395 296.529 94.388 297.022C94.0714 296.789 92.1317 296.157 91.1583 295.857C90.6143 296.026 89.5497 296.364 89.643 296.364C89.7362 296.364 90.2064 296.92 90.4298 297.198C90.3715 297.234 90.2316 297.306 90.1384 297.306C90.0451 297.306 89.2447 296.896 88.8562 296.69L86.8747 298.031C87.271 297.915 88.8076 298.369 89.5264 298.611C89.1068 298.582 86.9815 298.937 85.9713 299.118L84.8349 300.784L85.8256 301.11L85.6799 301.364L84.5143 301.509L83.9024 303.284C84.7416 302.82 85.6896 302.801 86.0588 302.849C85.5226 302.994 84.1841 303.948 83.5818 304.407C83.2322 305.798 83.5721 307.595 83.7858 308.32C83.8324 308.117 86.1365 306.689 87.2826 306.001C87.236 305.769 87.4769 304.335 87.6032 303.646C87.6032 303.849 87.7003 305.107 87.7489 305.711L89.1185 305.023C89.0485 304.82 89.2447 303.489 89.3516 302.849H89.5264L89.439 304.769L90.6046 304.153C90.7503 303.513 91.0417 302.197 91.0417 302.052C91.0417 301.907 91.5274 301.436 91.7702 301.219C91.677 301.306 91.2457 303.018 91.0417 303.864C91.2515 303.777 92.4501 303.224 93.0232 302.958L93.5478 301.799C93.5866 301.787 93.676 301.77 93.7226 301.799C93.7692 301.828 93.6255 302.39 93.5478 302.668L94.9465 302.052C95.3661 301.531 96.52 300.796 97.0446 300.494L96.8406 301.11Z" fill="#5B8404"/>
<path d="M100.874 299.433C101.699 300 103.467 301.288 103.934 301.896C103.997 301.761 104.084 301.449 103.963 301.22C104.653 302.346 106.016 304.535 106.177 304.65C106.34 304.766 106.401 304.167 106.41 303.853C106.585 303.985 106.859 304.461 106.556 305.302C106.964 305.797 107.803 306.867 107.897 307.186C108.081 306.521 108.427 305.084 108.334 304.65C108.538 305.036 108.823 306.2 108.334 307.765L109.033 309.106C109.258 308.618 109.669 307.679 109.75 307.314C109.754 307.696 109.752 308.729 109.295 309.54L110.315 311.062C110.56 310.509 111.034 309.408 111.095 309.148C111.065 309.484 110.927 311.36 110.723 311.678L113.637 315.554C114.026 314.407 114.768 312.069 114.628 311.895C114.465 311.693 113.416 309.758 112.873 309.35C113.474 309.703 114.518 310.4 114.628 310.808V308.888C114.307 308.659 113.62 308.157 113.433 307.983H114.628L114.191 306.026C113.399 305.255 111.744 303.705 111.355 303.569C112.081 303.79 113.564 304.305 113.841 304.65C113.453 303.889 112.652 302.367 112.559 302.367C112.466 302.367 111.549 302.053 111.102 301.896V301.606H112.093L110.723 300.049C109.966 299.759 108.223 299.186 107.314 299.215C108.139 299.155 109.826 299.042 109.966 299.071C108.606 298.129 105.134 296.542 102.127 297.73C101.787 298.02 101.06 298.766 100.874 299.433Z" fill="#5B8404"/>
<mask id="mask1" mask-type="alpha" maskUnits="userSpaceOnUse" x="76" y="331" width="4" height="44">
<path d="M78.1261 349.748C77.948 355.088 78.8585 368.599 79.4524 374.136L77.1166 374.456C76.7207 373.748 76.2786 362.217 76.1071 356.54C76.012 355.202 76.0675 348.739 76.4832 343.842C76.8989 338.944 78.1063 333.965 78.7002 331.832L79.7295 332.152C78.4151 334.692 78.3043 344.408 78.1261 349.748Z" fill="#92742E"/>
</mask>
<g mask="url(#mask1)">
<path d="M78.1261 349.748C77.948 355.088 78.8585 368.599 79.4524 374.136L77.1166 374.456C76.7207 373.748 76.2786 362.217 76.1071 356.54C76.012 355.202 76.0675 348.739 76.4832 343.842C76.8989 338.944 78.1063 333.965 78.7002 331.832L79.7295 332.152C78.4151 334.692 78.3043 344.408 78.1261 349.748Z" fill="#92742E"/>
<path fill-rule="evenodd" clip-rule="evenodd" d="M76.0592 370.469C76.1679 371.742 77.0341 372.734 78.0866 372.734C79.1391 372.734 80.0053 371.742 80.114 370.469C80.1216 370.558 80.1255 370.649 80.1255 370.74C80.1255 372.14 79.2126 373.275 78.0866 373.275C76.9605 373.275 76.0477 372.14 76.0477 370.74C76.0477 370.649 76.0516 370.558 76.0592 370.469Z" fill="#715219"/>
<path fill-rule="evenodd" clip-rule="evenodd" d="M75.6633 366.335C75.772 367.608 76.6382 368.599 77.6907 368.599C78.7432 368.599 79.6094 367.608 79.7181 366.335C79.7257 366.424 79.7296 366.514 79.7296 366.606C79.7296 368.006 78.8167 369.141 77.6907 369.141C76.5646 369.141 75.6518 368.006 75.6518 366.606C75.6518 366.514 75.6557 366.424 75.6633 366.335Z" fill="#715219"/>
<path fill-rule="evenodd" clip-rule="evenodd" d="M74.9903 362.25C75.0989 363.523 75.9652 364.514 77.0176 364.514C78.0701 364.514 78.9364 363.523 79.045 362.25C79.0526 362.339 79.0565 362.429 79.0565 362.521C79.0565 363.921 78.1437 365.055 77.0176 365.055C75.8916 365.055 74.9788 363.921 74.9788 362.521C74.9788 362.429 74.9827 362.339 74.9903 362.25Z" fill="#715219"/>
<path fill-rule="evenodd" clip-rule="evenodd" d="M74.9903 357.426C75.0989 358.699 75.9652 359.69 77.0176 359.69C78.0701 359.69 78.9364 358.699 79.045 357.426C79.0526 357.515 79.0565 357.606 79.0565 357.697C79.0565 359.097 78.1437 360.232 77.0176 360.232C75.8916 360.232 74.9788 359.097 74.9788 357.697C74.9788 357.606 74.9827 357.515 74.9903 357.426Z" fill="#715219"/>
<path fill-rule="evenodd" clip-rule="evenodd" d="M74.9903 353.144C75.0989 354.417 75.9652 355.408 77.0176 355.408C78.0701 355.408 78.9364 354.417 79.045 353.144C79.0526 353.233 79.0565 353.323 79.0565 353.415C79.0565 354.815 78.1437 355.95 77.0176 355.95C75.8916 355.95 74.9788 354.815 74.9788 353.415C74.9788 353.323 74.9827 353.233 74.9903 353.144Z" fill="#715219"/>
<path fill-rule="evenodd" clip-rule="evenodd" d="M74.9903 349.206C75.0989 350.479 75.9652 351.471 77.0176 351.471C78.0701 351.471 78.9364 350.479 79.045 349.206C79.0526 349.295 79.0565 349.386 79.0565 349.477C79.0565 350.877 78.1437 352.012 77.0176 352.012C75.8916 352.012 74.9788 350.877 74.9788 349.477C74.9788 349.386 74.9827 349.295 74.9903 349.206Z" fill="#715219"/>
<path fill-rule="evenodd" clip-rule="evenodd" d="M74.9111 345.269C75.0197 346.542 75.886 347.533 76.9385 347.533C77.9909 347.533 78.8572 346.542 78.9658 345.269C78.9734 345.358 78.9773 345.448 78.9773 345.54C78.9773 346.94 78.0645 348.075 76.9385 348.075C75.8124 348.075 74.8996 346.94 74.8996 345.54C74.8996 345.448 74.9035 345.358 74.9111 345.269Z" fill="#715219"/>
<path fill-rule="evenodd" clip-rule="evenodd" d="M74.9111 341.331C75.0197 342.604 75.886 343.596 76.9385 343.596C77.9909 343.596 78.8572 342.604 78.9658 341.331C78.9734 341.42 78.9773 341.511 78.9773 341.602C78.9773 343.002 78.0645 344.137 76.9385 344.137C75.8124 344.137 74.8996 343.002 74.8996 341.602C74.8996 341.511 74.9035 341.42 74.9111 341.331Z" fill="#715219"/>
<path fill-rule="evenodd" clip-rule="evenodd" d="M75.6633 337.591C75.772 338.863 76.6382 339.855 77.6907 339.855C78.7432 339.855 79.6094 338.863 79.7181 337.591C79.7257 337.68 79.7296 337.77 79.7296 337.861C79.7296 339.261 78.8167 340.396 77.6907 340.396C76.5646 340.396 75.6518 339.261 75.6518 337.861C75.6518 337.77 75.6557 337.68 75.6633 337.591Z" fill="#715219"/>
<path fill-rule="evenodd" clip-rule="evenodd" d="M77.0094 334.096C77.118 335.369 77.9843 336.36 79.0368 336.36C80.0892 336.36 80.9555 335.369 81.0641 334.096C81.0717 334.185 81.0756 334.275 81.0756 334.367C81.0756 335.767 80.1628 336.902 79.0368 336.902C77.9107 336.902 76.9979 335.767 76.9979 334.367C76.9979 334.275 77.0018 334.185 77.0094 334.096Z" fill="#715219"/>
<path fill-rule="evenodd" clip-rule="evenodd" d="M77.1668 331.34C77.2671 332.612 78.066 333.604 79.0368 333.604C80.0075 333.604 80.8064 332.612 80.9067 331.34C80.9137 331.429 80.9173 331.519 80.9173 331.611C80.9173 333.01 80.0753 334.145 79.0368 334.145C77.9982 334.145 77.1562 333.01 77.1562 331.611C77.1562 331.519 77.1598 331.429 77.1668 331.34Z" fill="#715219"/>
</g>
<path d="M77.7282 320.023C77.4431 320.279 77.0287 323.395 76.8572 324.92L78.8565 330.285C80.0046 327.127 82.2295 320.806 81.9445 320.786C81.5882 320.761 80.4005 321.82 80.4994 321.475C80.5786 321.199 81.575 320.392 82.0632 320.023L82.3997 319.088C82.182 319.088 81.7465 319.063 81.7465 318.965C81.7465 318.866 81.8785 318.793 81.9445 318.768H82.5779L82.8748 317.857C82.5898 317.759 81.8587 317.816 81.5288 317.857C83.2113 317.021 83.1717 317.587 83.1717 317.365C83.1717 317.188 84.0295 315.848 84.4584 315.199C82.5977 314.461 81.1725 315.421 80.9151 315.47C80.6578 315.519 80.4005 317.734 80.3213 317.587C80.2579 317.469 80.3477 316.356 80.4005 315.815L79.0346 317.119L79.1732 319.088L79.0346 319.26L78.7377 317.587L77.9459 319.26L78.4012 321.13L78.4606 322.213L77.7282 320.023Z" fill="#5B8404"/>
<path d="M78.9817 331.555C78.9801 331.591 78.9786 331.628 78.9771 331.663C78.9735 331.632 78.9751 331.596 78.9817 331.555C79.0883 329.106 79.4963 324.293 80.3232 323.788L80.5607 324.182C80.5673 323.772 80.5607 323.025 80.7586 322.706C80.9566 322.386 81.887 321.409 82.362 320.786L81.9265 322.804L82.362 321.967L82.8173 320.368L84.1634 319.408L83.6289 320.786C83.7543 320.663 84.1159 320.181 84.5593 319.236L86.1824 318.743C85.8987 319.088 85.3313 319.836 85.3313 320.072C85.3313 320.368 86.4002 318.743 86.6179 318.743C86.8357 318.743 89.0923 319.039 89.9039 319.777L88.0036 320.983C87.5879 320.852 86.6654 320.628 86.3012 320.786L87.5087 321.229L86.8357 321.795L86.1824 321.573L85.9449 321.795L86.5388 322.066L85.648 322.804C85.2389 322.771 84.298 322.814 83.8071 323.247H85.2125L84.1634 324.182L83.6289 324.034L83.4508 324.33L84.1634 324.773C82.4626 326.651 79.1478 330.526 78.9817 331.555Z" fill="#86AB39"/>
<path d="M81.9295 330.227C81.791 330.201 79.2584 332.248 79.1001 332.377C78.926 330.968 79.2914 329.544 79.4958 329.009C80.5082 326.092 82.3051 324.861 82.8119 324.557C82.8413 324.531 82.8704 324.512 82.899 324.5C82.9917 324.461 82.949 324.475 82.8119 324.557C82.4876 324.846 82.133 325.933 81.9922 326.318C82.255 325.912 83.28 324.696 83.829 324.059L85.036 323.748L84.759 324.552L84.9766 324.5L85.6691 323.619L87.3707 323.567L85.7681 324.94C85.7351 325.113 85.6889 325.396 85.7681 325.148C85.8472 324.899 87.4763 324.163 88.2809 323.826L89.4879 324.318L88.8745 325.018H89.1911L89.844 324.526C90.2397 324.776 90.9916 325.277 90.8333 325.277C90.675 325.277 89.7385 325.847 89.29 326.132C89.8968 325.994 91.1697 325.723 91.4071 325.744C91.6446 325.764 92.5877 327.169 93.0296 327.868C93.0138 328.014 90.8993 328.464 89.844 328.672C89.7807 328.402 89.0394 327.713 88.6766 327.402L89.4087 328.672L88.1028 328.879C87.839 328.516 87.2955 327.77 87.2322 327.687C87.1689 327.604 87.0608 327.653 87.0146 327.687L87.7862 328.879L86.698 329.009C86.388 328.672 85.7483 327.972 85.6691 327.868C85.5944 327.771 85.1252 327.717 84.9677 327.697C85.1587 327.794 85.8704 328.595 86.2231 329.009C85.1784 329.112 84.7721 329.345 84.6996 329.449L84.0071 328.879L83.829 329.009L84.1852 329.449L83.1365 329.682C82.7408 329.641 81.8636 329.907 81.4744 330.045C81.6723 330.114 82.0403 330.247 81.9295 330.227Z" fill="#6B9C05"/>
<path d="M79.0563 332.36C78.2183 330.366 76.3761 326.315 75.711 326.059C75.9617 326.109 76.5067 326.242 76.6809 326.379C76.8551 326.517 76.3312 325.994 76.0475 325.715L75.3151 325.395L74.6816 324.435L75.2755 324.386L75.0577 324.189H74.4837L73.6523 323.082C74.0525 323.126 74.8349 323.224 75.0892 323.301C74.7996 323.165 73.7473 322.639 73.1574 322.343L72.5636 321.507L73.1574 321.285L72.9001 321.162H72.2073L71.752 320.35H73.1574C73.4147 320.35 71.4353 319.808 71.3165 319.808C71.1977 319.808 70.1882 317.889 70.109 317.889C70.0298 317.889 72.425 317.692 73.1574 318.283L73.969 319.808L73.6523 318.48L74.9785 319.415L75.3151 320.99H75.4734L75.2755 319.612L76.3444 320.621L76.5621 322.343L76.8789 323.082L76.6809 321.162L77.4529 322.343L78.0665 323.328V324.287H78.2447L78.3833 323.845C78.7264 324.862 79.3453 327.078 79.0761 327.807L79.3532 327.413C79.2938 328.988 79.1513 332.182 79.0563 332.36Z" fill="#6B9C05"/>
<path d="M78.9554 332.353C78.0844 331.491 76.295 329.769 76.105 329.769C75.9149 329.769 76.2369 329.637 76.4217 329.572L73.7098 328.07L74.1453 327.849L73.8879 327.677L73.2149 327.849L71.8491 326.865C72.1922 326.643 72.9457 326.2 73.2149 326.2C73.4841 326.2 72.8916 326.118 72.5617 326.077L71.275 326.668L70.3446 326.2L71.374 325.363H71.0573L70.0675 326.077L68.8996 325.56L69.8102 324.527C69.3945 324.74 68.5552 325.206 68.5235 325.363C68.4918 325.521 66.4517 324.658 65.4355 324.207C65.9172 323.608 66.9597 322.41 67.2764 322.41C67.8373 322.541 69.0303 322.873 69.3153 323.148C68.959 322.804 68.183 322.105 67.9297 322.066L69.0778 321.623L69.8102 322.312H69.9883L69.5924 321.5H70.9583C71.5723 321.979 72.8486 323.034 73.0892 323.456C72.7598 322.861 72.1192 321.75 71.9037 321.536C71.8452 321.513 71.822 321.5 71.8491 321.5C71.8615 321.5 71.88 321.512 71.9037 321.536C72.1881 321.649 73.3085 322.006 73.5712 322.312L74.1453 323.665V322.632C74.1453 322.312 78.3616 327.578 78.9554 330.088C79.0346 330.523 79.1454 331.585 78.9554 332.353Z" fill="#5B8404"/>
<path d="M78.9752 332.353C78.1372 331.819 76.3544 330.812 75.9268 331.048V330.753C75.3989 330.925 74.3234 331.299 74.2442 331.417C73.9605 331.434 73.3733 331.481 73.2941 331.54C73.1951 331.614 73.4524 331.048 73.5118 331.048C73.5593 331.048 73.3865 330.983 73.2941 330.95L72.819 331.664C72.3637 331.729 71.4215 331.885 71.2948 331.983C71.1432 332.101 71.9896 330.392 72.1662 330.246C71.9494 330.357 71.5477 330.578 71.5323 330.655C71.5125 330.753 70.8989 331.959 70.8989 332.107L69.9092 332.377C69.9949 331.967 70.1863 331.127 70.2655 331.048C70.3446 330.97 70.1797 331.015 70.0873 331.048C69.9356 331.467 69.632 332.333 69.632 332.451L68.4839 332.771C68.5433 332.328 68.6858 331.432 68.7809 331.393L68.6225 331.442C68.4377 331.86 68.0682 332.732 68.0682 332.869C68.0682 333.007 66.0228 333.353 65 333.509C65.1782 332.714 65.5978 331.088 65.8512 330.95C66.3461 330.786 67.4506 330.448 67.9099 330.408C67.415 330.343 66.3936 330.231 66.2669 330.31L66.9201 329.301L67.8109 329.424L67.9099 329.301L67.2764 328.858L68.2464 327.997C68.9932 328.012 70.5001 328.075 70.7895 328.202C70.2699 327.918 69.223 327.387 68.959 327.406C69.4407 327.226 70.4357 326.865 70.5624 326.865C70.8461 327.045 71.4294 327.406 71.4927 327.406C71.5561 327.406 71.6247 327.34 71.6511 327.308L71.1958 326.717H71.948C73.9143 327.767 77.9063 329.975 78.1438 330.408C78.4407 330.95 78.9752 331.836 78.9752 332.353Z" fill="#6B9C05"/>
<path d="M81.9247 333.338C81.2754 333.003 79.6878 332.493 78.9752 332.279L79.0742 331.639C80.9587 329.907 83.8184 329.507 85.0127 329.523C84.7335 329.581 83.9633 330.226 83.5907 330.56C83.8058 330.402 85.1234 329.973 85.7847 329.769C86.1542 329.884 86.8773 330.114 86.814 330.114C86.7506 330.114 86.4313 330.491 86.2795 330.68C86.3191 330.704 86.4141 330.753 86.4775 330.753C86.5408 330.753 87.0845 330.475 87.3484 330.335L88.6945 331.246C88.4253 331.167 87.3814 331.475 86.8932 331.639C87.1782 331.62 88.6219 331.861 89.3081 331.984L90.0801 333.116L89.4071 333.338L89.5061 333.51L90.2979 333.608L90.7136 334.814C90.1435 334.499 89.4995 334.486 89.2488 334.519C89.613 334.617 90.5222 335.265 90.9313 335.577C91.1689 336.522 90.9379 337.743 90.7928 338.235C90.7611 338.097 89.196 337.127 88.4174 336.66C88.449 336.502 88.2854 335.528 88.1996 335.06C88.1996 335.198 88.1336 336.053 88.1007 336.463L87.1703 335.995C87.2178 335.858 87.0845 334.954 87.0119 334.519H86.8932L86.9526 335.823L86.1608 335.405C86.0618 334.97 85.8638 334.076 85.8638 333.977C85.8638 333.879 85.5339 333.559 85.369 333.411C85.4323 333.47 85.7253 334.634 85.8638 335.208C85.7213 335.149 84.9071 334.773 84.5178 334.593L84.1615 333.805C84.1351 333.797 84.0744 333.785 84.0427 333.805C84.011 333.825 84.1087 334.207 84.1615 334.396L83.2113 333.977C82.9263 333.623 82.1424 333.124 81.7861 332.919L81.9247 333.338Z" fill="#5B8404"/>
<path d="M79.185 332.198C78.6241 332.583 77.4232 333.458 77.1065 333.871C77.0634 333.779 77.0042 333.568 77.0866 333.412C76.6179 334.177 75.6916 335.664 75.5823 335.742C75.4714 335.82 75.4305 335.414 75.4239 335.2C75.3052 335.291 75.1191 335.614 75.325 336.185C75.0478 336.521 74.4777 337.248 74.4144 337.464C74.289 337.013 74.0541 336.037 74.1175 335.742C73.9789 336.004 73.7849 336.795 74.1175 337.858L73.6424 338.769C73.4893 338.437 73.2106 337.8 73.1552 337.552C73.1525 337.811 73.1539 338.513 73.4642 339.064L72.7714 340.098C72.605 339.722 72.283 338.974 72.2414 338.797C72.2623 339.026 72.3555 340.3 72.4943 340.516L70.5148 343.149C70.2509 342.37 69.7468 340.782 69.8418 340.664C69.9525 340.526 70.6653 339.212 71.0341 338.935C70.6258 339.175 69.9162 339.648 69.8418 339.925V338.621C70.0595 338.465 70.5267 338.124 70.6534 338.006H69.8418L70.1387 336.677C70.6767 336.153 71.8006 335.1 72.0652 335.007C71.5719 335.157 70.5645 335.508 70.3762 335.742C70.6402 335.225 71.1839 334.191 71.2472 334.191C71.3106 334.191 71.9334 333.978 72.237 333.871V333.674H71.5639L72.4943 332.616C73.009 332.419 74.1927 332.031 74.8103 332.05C74.2494 332.009 73.104 331.932 73.009 331.952C73.9327 331.312 76.2909 330.234 78.3338 331.041C78.5647 331.238 79.0583 331.745 79.185 332.198Z" fill="#5B8404"/>
<mask id="mask2" mask-type="alpha" maskUnits="userSpaceOnUse" x="123" y="333" width="5" height="50">
<path d="M124.832 354.195C125.034 360.242 124.003 375.541 123.33 381.811L125.975 382.173C126.424 381.371 126.924 368.314 127.119 361.886C127.226 360.37 127.163 353.052 126.693 347.507C126.222 341.961 124.855 336.323 124.182 333.907L123.017 334.27C124.505 337.146 124.631 348.148 124.832 354.195Z" fill="#92742E"/>
</mask>
<g mask="url(#mask2)">
<path d="M124.832 354.195C125.034 360.242 124.003 375.541 123.33 381.811L125.975 382.173C126.424 381.371 126.924 368.314 127.119 361.886C127.226 360.37 127.163 353.052 126.693 347.507C126.222 341.961 124.855 336.323 124.182 333.907L123.017 334.27C124.505 337.146 124.631 348.148 124.832 354.195Z" fill="#92742E"/>
<path fill-rule="evenodd" clip-rule="evenodd" d="M127.173 377.659C127.05 379.1 126.069 380.223 124.877 380.223C123.685 380.223 122.704 379.1 122.581 377.659C122.573 377.76 122.568 377.862 122.568 377.965C122.568 379.551 123.602 380.836 124.877 380.836C126.152 380.836 127.186 379.551 127.186 377.965C127.186 377.862 127.181 377.76 127.173 377.659Z" fill="#715219"/>
<path fill-rule="evenodd" clip-rule="evenodd" d="M127.621 372.977C127.498 374.418 126.517 375.541 125.325 375.541C124.134 375.541 123.153 374.418 123.03 372.977C123.021 373.078 123.017 373.18 123.017 373.284C123.017 374.869 124.05 376.154 125.325 376.154C126.6 376.154 127.634 374.869 127.634 373.284C127.634 373.18 127.63 373.078 127.621 372.977Z" fill="#715219"/>
<path fill-rule="evenodd" clip-rule="evenodd" d="M128.383 368.351C128.26 369.792 127.279 370.915 126.088 370.915C124.896 370.915 123.915 369.792 123.792 368.351C123.783 368.452 123.779 368.554 123.779 368.658C123.779 370.243 124.812 371.528 126.088 371.528C127.363 371.528 128.396 370.243 128.396 368.658C128.396 368.554 128.392 368.452 128.383 368.351Z" fill="#715219"/>
<path fill-rule="evenodd" clip-rule="evenodd" d="M128.383 362.889C128.26 364.33 127.279 365.453 126.088 365.453C124.896 365.453 123.915 364.33 123.792 362.889C123.783 362.99 123.779 363.092 123.779 363.196C123.779 364.781 124.812 366.066 126.088 366.066C127.363 366.066 128.396 364.781 128.396 363.196C128.396 363.092 128.392 362.99 128.383 362.889Z" fill="#715219"/>
<path fill-rule="evenodd" clip-rule="evenodd" d="M128.383 358.04C128.26 359.482 127.279 360.604 126.088 360.604C124.896 360.604 123.915 359.482 123.792 358.04C123.783 358.141 123.779 358.243 123.779 358.347C123.779 359.932 124.812 361.217 126.088 361.217C127.363 361.217 128.396 359.932 128.396 358.347C128.396 358.243 128.392 358.141 128.383 358.04Z" fill="#715219"/>
<path fill-rule="evenodd" clip-rule="evenodd" d="M128.383 353.582C128.26 355.023 127.279 356.145 126.088 356.145C124.896 356.145 123.915 355.023 123.792 353.582C123.783 353.682 123.779 353.785 123.779 353.888C123.779 355.473 124.812 356.758 126.088 356.758C127.363 356.758 128.396 355.473 128.396 353.888C128.396 353.785 128.392 353.682 128.383 353.582Z" fill="#715219"/>
<path fill-rule="evenodd" clip-rule="evenodd" d="M128.473 349.123C128.35 350.564 127.369 351.687 126.177 351.687C124.985 351.687 124.004 350.564 123.881 349.123C123.873 349.224 123.868 349.326 123.868 349.429C123.868 351.015 124.902 352.3 126.177 352.3C127.452 352.3 128.486 351.015 128.486 349.429C128.486 349.326 128.481 349.224 128.473 349.123Z" fill="#715219"/>
<path fill-rule="evenodd" clip-rule="evenodd" d="M128.473 344.664C128.35 346.105 127.369 347.228 126.177 347.228C124.985 347.228 124.004 346.105 123.881 344.664C123.873 344.765 123.868 344.867 123.868 344.971C123.868 346.556 124.902 347.841 126.177 347.841C127.452 347.841 128.486 346.556 128.486 344.971C128.486 344.867 128.481 344.765 128.473 344.664Z" fill="#715219"/>
<path fill-rule="evenodd" clip-rule="evenodd" d="M127.621 340.428C127.498 341.869 126.517 342.992 125.325 342.992C124.134 342.992 123.153 341.869 123.03 340.428C123.021 340.529 123.017 340.631 123.017 340.735C123.017 342.32 124.05 343.605 125.325 343.605C126.6 343.605 127.634 342.32 127.634 340.735C127.634 340.631 127.63 340.529 127.621 340.428Z" fill="#715219"/>
<path fill-rule="evenodd" clip-rule="evenodd" d="M126.097 336.471C125.974 337.912 124.993 339.035 123.801 339.035C122.609 339.035 121.629 337.912 121.505 336.471C121.497 336.572 121.492 336.674 121.492 336.778C121.492 338.363 122.526 339.648 123.801 339.648C125.076 339.648 126.11 338.363 126.11 336.778C126.11 336.674 126.105 336.572 126.097 336.471Z" fill="#715219"/>
<path fill-rule="evenodd" clip-rule="evenodd" d="M125.919 333.35C125.805 334.791 124.9 335.914 123.801 335.914C122.702 335.914 121.797 334.791 121.684 333.35C121.676 333.451 121.672 333.553 121.672 333.656C121.672 335.242 122.625 336.527 123.801 336.527C124.977 336.527 125.931 335.242 125.931 333.656C125.931 333.553 125.927 333.451 125.919 333.35Z" fill="#715219"/>
</g>
<path d="M121.784 320.698C121.461 320.988 120.992 324.516 120.798 326.244L123.061 332.319C124.362 328.743 126.881 321.584 126.558 321.562C126.155 321.534 124.81 322.733 124.922 322.342C125.012 322.03 126.14 321.116 126.693 320.698L127.074 319.639C126.827 319.639 126.334 319.612 126.334 319.5C126.334 319.389 126.483 319.305 126.558 319.277H127.275L127.612 318.246C127.289 318.135 126.461 318.2 126.087 318.246C127.993 317.299 127.948 317.939 127.948 317.689C127.948 317.488 128.919 315.97 129.405 315.236C127.298 314.4 125.684 315.487 125.393 315.543C125.101 315.599 124.81 318.107 124.72 317.939C124.648 317.806 124.75 316.546 124.81 315.933L123.263 317.41L123.42 319.639L123.263 319.834L122.927 317.939L122.03 319.834L122.546 321.952L122.613 323.179L121.784 320.698Z" fill="#5B8404"/>
<path d="M123.203 333.756C123.202 333.798 123.2 333.839 123.198 333.88C123.194 333.844 123.196 333.803 123.203 333.756C123.324 330.984 123.786 325.533 124.722 324.962L124.991 325.408C124.999 324.943 124.991 324.098 125.215 323.736C125.44 323.374 126.493 322.268 127.031 321.562L126.538 323.847L127.031 322.9L127.547 321.088L129.071 320.002L128.466 321.562C128.608 321.423 129.017 320.877 129.519 319.807L131.357 319.249C131.036 319.639 130.393 320.487 130.393 320.754C130.393 321.088 131.604 319.249 131.85 319.249C132.097 319.249 134.652 319.584 135.571 320.42L133.419 321.785C132.949 321.637 131.904 321.384 131.492 321.562L132.859 322.064L132.097 322.705L131.357 322.454L131.088 322.705L131.761 323.011L130.752 323.847C130.289 323.81 129.223 323.858 128.667 324.349H130.259L129.071 325.408L128.466 325.241L128.264 325.575L129.071 326.077C127.145 328.203 123.391 332.591 123.203 333.756Z" fill="#86AB39"/>
<path d="M126.541 332.252C126.384 332.223 123.517 334.541 123.337 334.688C123.14 333.091 123.554 331.48 123.786 330.873C124.932 327.57 126.967 326.176 127.541 325.833C127.574 325.803 127.607 325.781 127.639 325.768C127.744 325.724 127.696 325.74 127.541 325.833C127.173 326.16 126.772 327.39 126.612 327.827C126.91 327.366 128.071 325.99 128.692 325.269L130.059 324.917L129.745 325.826L129.992 325.768L130.776 324.77L132.703 324.711L130.888 326.266C130.851 326.462 130.798 326.783 130.888 326.501C130.978 326.219 132.822 325.386 133.733 325.005L135.1 325.562L134.406 326.354H134.764L135.503 325.797C135.951 326.081 136.803 326.648 136.624 326.648C136.444 326.648 135.384 327.293 134.876 327.616C135.563 327.46 137.005 327.153 137.273 327.176C137.542 327.199 138.61 328.79 139.111 329.582C139.093 329.746 136.698 330.257 135.503 330.492C135.432 330.187 134.592 329.406 134.181 329.054L135.01 330.492L133.532 330.726C133.233 330.316 132.618 329.471 132.546 329.377C132.474 329.283 132.352 329.338 132.299 329.377L133.173 330.726L131.941 330.873C131.59 330.492 130.866 329.699 130.776 329.582C130.691 329.471 130.16 329.411 129.982 329.388C130.198 329.498 131.004 330.405 131.403 330.873C130.22 330.991 129.76 331.255 129.678 331.372L128.894 330.726L128.692 330.873L129.096 331.372L127.908 331.636C127.46 331.589 126.467 331.89 126.026 332.047C126.25 332.125 126.667 332.276 126.541 332.252Z" fill="#6B9C05"/>
<path d="M123.288 334.668C122.339 332.41 120.253 327.823 119.5 327.534C119.784 327.589 120.401 327.74 120.598 327.896C120.795 328.052 120.202 327.459 119.881 327.143L119.051 326.781L118.334 325.694L119.007 325.639L118.76 325.416H118.11L117.169 324.162C117.622 324.211 118.508 324.323 118.796 324.41C118.468 324.256 117.276 323.661 116.608 323.326L115.936 322.378L116.608 322.127L116.317 321.988H115.532L115.017 321.068H116.608C116.9 321.068 114.658 320.455 114.524 320.455C114.389 320.455 113.246 318.282 113.156 318.282C113.067 318.282 115.779 318.059 116.608 318.728L117.527 320.455L117.169 318.95L118.67 320.009L119.051 321.793H119.231L119.007 320.232L120.217 321.375L120.464 323.326L120.822 324.162L120.598 321.988L121.472 323.326L122.167 324.44V325.527H122.369L122.526 325.026C122.914 326.177 123.615 328.687 123.31 329.512L123.624 329.066C123.557 330.85 123.395 334.467 123.288 334.668Z" fill="#6B9C05"/>
<path d="M123.174 334.66C122.187 333.684 120.161 331.734 119.946 331.734C119.731 331.734 120.095 331.585 120.304 331.511L117.234 329.811L117.727 329.56L117.435 329.365L116.673 329.56L115.127 328.445C115.515 328.195 116.368 327.693 116.673 327.693C116.978 327.693 116.307 327.6 115.934 327.554L114.477 328.222L113.423 327.693L114.589 326.745H114.23L113.109 327.554L111.787 326.968L112.818 325.798C112.347 326.039 111.397 326.567 111.361 326.745C111.325 326.924 109.015 325.947 107.864 325.436C108.41 324.758 109.59 323.401 109.949 323.401C110.584 323.55 111.935 323.925 112.257 324.237C111.854 323.847 110.975 323.056 110.688 323.011L111.989 322.51L112.818 323.29H113.02L112.571 322.37H114.118C114.813 322.913 116.258 324.107 116.531 324.585C116.158 323.912 115.433 322.653 115.188 322.411C115.122 322.385 115.096 322.37 115.127 322.37C115.141 322.37 115.162 322.385 115.188 322.411C115.511 322.539 116.779 322.943 117.077 323.29L117.727 324.823V323.652C117.727 323.29 122.501 329.253 123.174 332.096C123.263 332.588 123.389 333.79 123.174 334.66Z" fill="#5B8404"/>
<path d="M123.196 334.66C122.247 334.056 120.228 332.915 119.744 333.183V332.848C119.146 333.043 117.928 333.467 117.839 333.601C117.518 333.619 116.853 333.673 116.763 333.74C116.651 333.824 116.942 333.183 117.009 333.183C117.063 333.183 116.868 333.109 116.763 333.071L116.225 333.88C115.709 333.954 114.642 334.13 114.499 334.242C114.327 334.375 115.286 332.439 115.486 332.274C115.24 332.4 114.785 332.65 114.768 332.737C114.746 332.848 114.051 334.214 114.051 334.381L112.93 334.688C113.027 334.223 113.244 333.272 113.333 333.183C113.423 333.094 113.236 333.146 113.132 333.183C112.96 333.657 112.616 334.637 112.616 334.771L111.316 335.134C111.383 334.632 111.545 333.618 111.652 333.573L111.473 333.629C111.264 334.102 110.845 335.089 110.845 335.245C110.845 335.401 108.529 335.793 107.371 335.97C107.573 335.069 108.048 333.227 108.335 333.071C108.895 332.886 110.146 332.503 110.666 332.458C110.106 332.384 108.949 332.258 108.806 332.347L109.545 331.204L110.554 331.344L110.666 331.204L109.949 330.703L111.047 329.727C111.893 329.745 113.599 329.816 113.927 329.959C113.339 329.638 112.153 329.037 111.854 329.058C112.399 328.854 113.526 328.445 113.67 328.445C113.991 328.65 114.651 329.058 114.723 329.058C114.795 329.058 114.873 328.984 114.902 328.947L114.387 328.278H115.239C117.465 329.467 121.986 331.968 122.255 332.458C122.591 333.071 123.196 334.075 123.196 334.66Z" fill="#6B9C05"/>
<path d="M126.536 335.775C125.801 335.396 124.003 334.818 123.196 334.577L123.308 333.852C125.442 331.89 128.68 331.437 130.033 331.456C129.716 331.521 128.844 332.251 128.422 332.63C128.666 332.451 130.158 331.965 130.907 331.734C131.325 331.864 132.144 332.124 132.072 332.124C132.001 332.124 131.639 332.552 131.467 332.765C131.512 332.793 131.62 332.849 131.691 332.849C131.763 332.849 132.379 332.533 132.677 332.375L134.202 333.406C133.897 333.317 132.715 333.666 132.162 333.852C132.485 333.83 134.12 334.103 134.897 334.242L135.771 335.524L135.009 335.775L135.121 335.97L136.017 336.082L136.488 337.447C135.842 337.09 135.113 337.076 134.829 337.113C135.242 337.224 136.271 337.958 136.735 338.311C137.004 339.381 136.742 340.763 136.578 341.321C136.542 341.165 134.77 340.067 133.888 339.537C133.924 339.359 133.738 338.255 133.641 337.726C133.641 337.882 133.567 338.85 133.529 339.314L132.476 338.785C132.53 338.629 132.379 337.605 132.296 337.113H132.162L132.229 338.59L131.333 338.116C131.221 337.624 130.996 336.611 130.996 336.5C130.996 336.388 130.623 336.026 130.436 335.859C130.508 335.926 130.839 337.243 130.996 337.893C130.835 337.826 129.913 337.401 129.472 337.196L129.069 336.305C129.039 336.295 128.97 336.282 128.934 336.305C128.898 336.327 129.009 336.76 129.069 336.973L127.993 336.5C127.67 336.098 126.782 335.534 126.379 335.301L126.536 335.775Z" fill="#5B8404"/>
<path d="M123.433 334.485C122.798 334.921 121.439 335.911 121.08 336.38C121.031 336.276 120.964 336.036 121.057 335.859C120.527 336.725 119.478 338.41 119.354 338.497C119.228 338.587 119.182 338.126 119.175 337.884C119.04 337.987 118.829 338.353 119.063 338.999C118.749 339.38 118.103 340.203 118.031 340.448C117.89 339.937 117.624 338.832 117.695 338.497C117.538 338.795 117.319 339.69 117.695 340.894L117.157 341.925C116.984 341.55 116.668 340.828 116.606 340.547C116.603 340.841 116.604 341.635 116.956 342.26L116.171 343.43C115.983 343.005 115.618 342.158 115.571 341.957C115.595 342.216 115.7 343.659 115.857 343.904L113.616 346.886C113.317 346.003 112.746 344.205 112.854 344.071C112.979 343.915 113.786 342.427 114.204 342.113C113.741 342.385 112.938 342.921 112.854 343.235V341.758C113.1 341.581 113.629 341.195 113.773 341.061H112.854L113.19 339.556C113.799 338.963 115.072 337.771 115.371 337.666C114.813 337.836 113.672 338.232 113.459 338.497C113.758 337.912 114.373 336.742 114.445 336.742C114.517 336.742 115.222 336.5 115.566 336.38V336.157H114.804L115.857 334.958C116.44 334.735 117.78 334.295 118.48 334.317C117.845 334.271 116.548 334.184 116.44 334.206C117.486 333.481 120.156 332.261 122.47 333.175C122.731 333.398 123.29 333.972 123.433 334.485Z" fill="#5B8404"/>
<mask id="mask3" mask-type="alpha" maskUnits="userSpaceOnUse" x="706" y="317" width="7" height="64">
<path d="M709.055 343.705C709.317 351.567 707.977 371.456 707.103 379.607L710.541 380.078C711.124 379.035 711.775 362.061 712.028 353.704C712.167 351.733 712.086 342.22 711.474 335.01C710.862 327.801 709.084 320.471 708.21 317.331L706.695 317.802C708.63 321.541 708.793 335.844 709.055 343.705Z" fill="#92742E"/>
</mask>
<g mask="url(#mask3)">
<path d="M709.055 343.705C709.317 351.567 707.977 371.456 707.103 379.607L710.541 380.078C711.124 379.035 711.775 362.061 712.028 353.704C712.167 351.733 712.086 342.22 711.474 335.01C710.862 327.801 709.084 320.471 708.21 317.331L706.695 317.802C708.63 321.541 708.793 335.844 709.055 343.705Z" fill="#92742E"/>
<path fill-rule="evenodd" clip-rule="evenodd" d="M712.098 374.209C711.938 376.083 710.663 377.542 709.114 377.542C707.564 377.542 706.289 376.083 706.129 374.209C706.118 374.34 706.112 374.473 706.112 374.608C706.112 376.669 707.456 378.339 709.114 378.339C710.771 378.339 712.115 376.669 712.115 374.608C712.115 374.473 712.109 374.34 712.098 374.209Z" fill="#715219"/>
<path fill-rule="evenodd" clip-rule="evenodd" d="M712.681 368.123C712.521 369.996 711.246 371.456 709.696 371.456C708.147 371.456 706.872 369.996 706.712 368.123C706.701 368.254 706.695 368.387 706.695 368.521C706.695 370.582 708.039 372.253 709.696 372.253C711.354 372.253 712.698 370.582 712.698 368.521C712.698 368.387 712.692 368.254 712.681 368.123Z" fill="#715219"/>
<path fill-rule="evenodd" clip-rule="evenodd" d="M713.672 362.109C713.512 363.983 712.237 365.442 710.687 365.442C709.138 365.442 707.863 363.983 707.703 362.109C707.691 362.24 707.686 362.373 707.686 362.508C707.686 364.568 709.03 366.239 710.687 366.239C712.345 366.239 713.689 364.568 713.689 362.508C713.689 362.373 713.683 362.24 713.672 362.109Z" fill="#715219"/>
<path fill-rule="evenodd" clip-rule="evenodd" d="M713.672 355.008C713.512 356.882 712.237 358.341 710.687 358.341C709.138 358.341 707.863 356.882 707.703 355.008C707.691 355.139 707.686 355.272 707.686 355.407C707.686 357.468 709.03 359.138 710.687 359.138C712.345 359.138 713.689 357.468 713.689 355.407C713.689 355.272 713.683 355.139 713.672 355.008Z" fill="#715219"/>
<path fill-rule="evenodd" clip-rule="evenodd" d="M713.672 348.705C713.512 350.578 712.237 352.038 710.687 352.038C709.138 352.038 707.863 350.578 707.703 348.705C707.691 348.836 707.686 348.969 707.686 349.103C707.686 351.164 709.03 352.835 710.687 352.835C712.345 352.835 713.689 351.164 713.689 349.103C713.689 348.969 713.683 348.836 713.672 348.705Z" fill="#715219"/>
<path fill-rule="evenodd" clip-rule="evenodd" d="M713.672 342.908C713.512 344.782 712.237 346.241 710.687 346.241C709.138 346.241 707.863 344.782 707.703 342.908C707.691 343.039 707.686 343.172 707.686 343.307C707.686 345.367 709.03 347.038 710.687 347.038C712.345 347.038 713.689 345.367 713.689 343.307C713.689 343.172 713.683 343.039 713.672 342.908Z" fill="#715219"/>
<path fill-rule="evenodd" clip-rule="evenodd" d="M713.788 337.112C713.628 338.985 712.353 340.445 710.804 340.445C709.254 340.445 707.979 338.985 707.819 337.112C707.808 337.243 707.802 337.375 707.802 337.51C707.802 339.571 709.146 341.242 710.804 341.242C712.461 341.242 713.805 339.571 713.805 337.51C713.805 337.375 713.799 337.243 713.788 337.112Z" fill="#715219"/>
<path fill-rule="evenodd" clip-rule="evenodd" d="M713.788 331.315C713.628 333.189 712.353 334.648 710.804 334.648C709.254 334.648 707.979 333.189 707.819 331.315C707.808 331.446 707.802 331.579 707.802 331.714C707.802 333.774 709.146 335.445 710.804 335.445C712.461 335.445 713.805 333.774 713.805 331.714C713.805 331.579 713.799 331.446 713.788 331.315Z" fill="#715219"/>
<path fill-rule="evenodd" clip-rule="evenodd" d="M712.681 325.808C712.521 327.682 711.246 329.141 709.696 329.141C708.147 329.141 706.872 327.682 706.712 325.808C706.701 325.939 706.695 326.072 706.695 326.207C706.695 328.268 708.039 329.938 709.696 329.938C711.354 329.938 712.698 328.268 712.698 326.207C712.698 326.072 712.692 325.939 712.681 325.808Z" fill="#715219"/>
<path fill-rule="evenodd" clip-rule="evenodd" d="M710.699 320.664C710.539 322.537 709.264 323.997 707.715 323.997C706.165 323.997 704.89 322.537 704.73 320.664C704.719 320.795 704.713 320.928 704.713 321.063C704.713 323.123 706.057 324.794 707.715 324.794C709.372 324.794 710.716 323.123 710.716 321.063C710.716 320.928 710.711 320.795 710.699 320.664Z" fill="#715219"/>
<path fill-rule="evenodd" clip-rule="evenodd" d="M710.468 316.606C710.32 318.48 709.144 319.939 707.715 319.939C706.286 319.939 705.11 318.48 704.962 316.606C704.952 316.737 704.947 316.87 704.947 317.005C704.947 319.066 706.186 320.736 707.715 320.736C709.244 320.736 710.483 319.066 710.483 317.005C710.483 316.87 710.478 316.737 710.468 316.606Z" fill="#715219"/>
</g>
<path d="M705.092 300.159C704.673 300.536 704.063 305.122 703.81 307.368L706.753 315.266C708.443 310.617 711.719 301.311 711.299 301.282C710.775 301.246 709.026 302.803 709.172 302.296C709.288 301.89 710.755 300.702 711.474 300.159L711.969 298.782C711.649 298.782 711.008 298.746 711.008 298.601C711.008 298.456 711.202 298.347 711.299 298.311H712.232L712.669 296.971C712.249 296.826 711.173 296.91 710.687 296.971C713.164 295.739 713.106 296.572 713.106 296.246C713.106 295.985 714.368 294.012 715 293.058C712.261 291.971 710.163 293.384 709.784 293.457C709.405 293.529 709.026 296.79 708.91 296.572C708.816 296.398 708.948 294.761 709.026 293.964L707.015 295.884L707.219 298.782L707.015 299.036L706.578 296.572L705.413 299.036L706.083 301.789L706.17 303.383L705.092 300.159Z" fill="#5B8404"/>
<path d="M706.938 317.135C706.935 317.189 706.933 317.242 706.931 317.295C706.926 317.248 706.928 317.195 706.938 317.135C707.095 313.53 707.695 306.444 708.912 305.702L709.262 306.281C709.272 305.678 709.262 304.579 709.553 304.108C709.845 303.637 711.214 302.2 711.914 301.282L711.273 304.253L711.914 303.021L712.584 300.666L714.566 299.253L713.779 301.282C713.963 301.101 714.496 300.391 715.148 299L717.538 298.275C717.12 298.782 716.285 299.883 716.285 300.231C716.285 300.666 717.858 298.275 718.179 298.275C718.5 298.275 721.821 298.71 723.016 299.797L720.219 301.572C719.607 301.379 718.249 301.05 717.713 301.282L719.49 301.934L718.5 302.767L717.538 302.441L717.188 302.767L718.062 303.166L716.751 304.253C716.149 304.204 714.764 304.267 714.041 304.905H716.11L714.566 306.281L713.779 306.064L713.517 306.499L714.566 307.151C712.062 309.915 707.182 315.62 706.938 317.135Z" fill="#86AB39"/>
<path d="M711.299 315.144C711.096 315.106 707.381 318.108 707.149 318.298C706.894 316.231 707.43 314.143 707.729 313.357C709.214 309.079 711.85 307.274 712.593 306.829C712.636 306.79 712.679 306.762 712.721 306.744C712.857 306.687 712.794 306.708 712.593 306.829C712.118 307.252 711.598 308.846 711.391 309.411C711.776 308.815 713.28 307.032 714.085 306.098L715.856 305.642L715.449 306.82L715.768 306.744L716.784 305.452L719.28 305.376L716.929 307.39C716.881 307.644 716.813 308.059 716.929 307.694C717.045 307.329 719.435 306.25 720.615 305.756L722.385 306.478L721.486 307.504H721.95L722.908 306.782C723.488 307.149 724.591 307.884 724.359 307.884C724.127 307.884 722.753 308.72 722.095 309.138C722.985 308.936 724.852 308.538 725.2 308.568C725.549 308.599 726.932 310.659 727.58 311.685C727.557 311.898 724.456 312.559 722.908 312.863C722.815 312.468 721.728 311.457 721.195 311.001L722.269 312.863L720.354 313.167C719.967 312.635 719.17 311.541 719.077 311.419C718.984 311.297 718.825 311.368 718.758 311.419L719.89 313.167L718.293 313.357C717.839 312.863 716.9 311.837 716.784 311.685C716.675 311.542 715.986 311.463 715.755 311.433C716.036 311.576 717.079 312.751 717.597 313.357C716.064 313.509 715.469 313.851 715.362 314.003L714.346 313.167L714.085 313.357L714.608 314.003L713.069 314.346C712.489 314.285 711.202 314.675 710.632 314.878C710.922 314.979 711.462 315.174 711.299 315.144Z" fill="#6B9C05"/>
<path d="M707.047 318.319C705.814 315.385 703.102 309.422 702.123 309.045C702.492 309.117 703.294 309.313 703.551 309.516C703.807 309.719 703.036 308.948 702.618 308.538L701.54 308.067L700.607 306.654L701.482 306.581L701.161 306.292H700.316L699.092 304.661C699.681 304.726 700.833 304.871 701.207 304.984C700.781 304.784 699.232 304.01 698.364 303.574L697.489 302.343L698.364 302.017L697.985 301.835H696.965L696.295 300.64H698.364C698.743 300.64 695.829 299.843 695.654 299.843C695.479 299.843 693.993 297.017 693.876 297.017C693.76 297.017 697.286 296.727 698.364 297.597L699.558 299.843L699.092 297.887L701.045 299.263L701.54 301.582H701.773L701.482 299.553L703.055 301.038L703.376 303.574L703.842 304.661L703.551 301.835L704.687 303.574L705.59 305.024V306.436H705.853L706.057 305.784C706.562 307.282 707.473 310.545 707.077 311.617L707.485 311.037C707.397 313.356 707.187 318.058 707.047 318.319Z" fill="#6B9C05"/>
<path d="M706.899 318.309C705.617 317.041 702.982 314.505 702.703 314.505C702.423 314.505 702.897 314.312 703.169 314.215L699.177 312.005L699.818 311.679L699.439 311.426L698.448 311.679L696.438 310.23C696.943 309.904 698.052 309.252 698.448 309.252C698.845 309.252 697.972 309.131 697.487 309.071L695.593 309.94L694.223 309.252L695.738 308.02H695.272L693.815 309.071L692.096 308.31L693.436 306.789C692.824 307.103 691.589 307.788 691.542 308.02C691.495 308.252 688.492 306.982 686.996 306.318C687.705 305.436 689.24 303.673 689.706 303.673C690.532 303.866 692.288 304.354 692.708 304.76C692.183 304.253 691.041 303.224 690.668 303.166L692.358 302.514L693.436 303.528H693.698L693.116 302.332H695.126C696.03 303.038 697.909 304.591 698.263 305.212C697.778 304.336 696.835 302.701 696.518 302.386C696.432 302.351 696.398 302.332 696.438 302.332C696.456 302.332 696.483 302.351 696.518 302.386C696.937 302.552 698.586 303.077 698.973 303.528L699.818 305.521V303.999C699.818 303.528 706.025 311.281 706.899 314.976C707.015 315.616 707.179 317.179 706.899 318.309Z" fill="#5B8404"/>
<path d="M706.928 318.309C705.694 317.524 703.07 316.041 702.44 316.389V315.954C701.663 316.208 700.08 316.759 699.964 316.933C699.546 316.957 698.681 317.027 698.565 317.114C698.419 317.222 698.798 316.389 698.885 316.389C698.955 316.389 698.701 316.293 698.565 316.244L697.865 317.295C697.195 317.391 695.808 317.621 695.622 317.766C695.398 317.939 696.645 315.422 696.904 315.208C696.585 315.371 695.994 315.697 695.971 315.809C695.942 315.954 695.039 317.73 695.039 317.947L693.582 318.345C693.708 317.742 693.99 316.505 694.106 316.389C694.223 316.273 693.98 316.341 693.844 316.389C693.621 317.005 693.174 318.28 693.174 318.454L691.484 318.925C691.571 318.273 691.781 316.954 691.921 316.896L691.688 316.969C691.416 317.585 690.872 318.867 690.872 319.07C690.872 319.273 687.861 319.782 686.355 320.012C686.617 318.841 687.235 316.447 687.608 316.244C688.337 316.003 689.963 315.505 690.639 315.447C689.91 315.351 688.407 315.186 688.22 315.302L689.182 313.817L690.493 313.998L690.639 313.817L689.706 313.165L691.134 311.897C692.233 311.92 694.452 312.012 694.878 312.199C694.113 311.781 692.572 310.999 692.183 311.027C692.892 310.762 694.357 310.23 694.543 310.23C694.961 310.496 695.82 311.027 695.913 311.027C696.006 311.027 696.107 310.931 696.146 310.882L695.476 310.013H696.583C699.478 311.559 705.354 314.81 705.704 315.447C706.141 316.244 706.928 317.548 706.928 318.309Z" fill="#6B9C05"/>
<path d="M711.27 319.759C710.314 319.266 707.977 318.515 706.928 318.201L707.074 317.259C709.848 314.709 714.058 314.119 715.816 314.144C715.405 314.229 714.271 315.178 713.723 315.671C714.039 315.437 715.979 314.806 716.952 314.506C717.496 314.675 718.561 315.013 718.468 315.013C718.374 315.013 717.904 315.569 717.681 315.846C717.739 315.883 717.879 315.955 717.972 315.955C718.065 315.955 718.866 315.544 719.254 315.339L721.236 316.68C720.84 316.564 719.303 317.018 718.584 317.259C719.004 317.23 721.129 317.585 722.139 317.766L723.276 319.433L722.285 319.759L722.431 320.013L723.596 320.157L724.208 321.933C723.369 321.469 722.421 321.45 722.052 321.498C722.588 321.643 723.926 322.597 724.529 323.056C724.878 324.447 724.538 326.244 724.325 326.968C724.278 326.765 721.974 325.338 720.828 324.65C720.875 324.418 720.634 322.983 720.507 322.295C720.507 322.498 720.41 323.756 720.362 324.36L718.992 323.672C719.062 323.469 718.866 322.138 718.759 321.498H718.584L718.672 323.418L717.506 322.802C717.36 322.162 717.069 320.846 717.069 320.701C717.069 320.556 716.583 320.085 716.34 319.868C716.434 319.955 716.865 321.667 717.069 322.512C716.859 322.425 715.66 321.872 715.087 321.607L714.563 320.447C714.524 320.435 714.435 320.418 714.388 320.447C714.341 320.476 714.485 321.039 714.563 321.317L713.164 320.701C712.744 320.179 711.591 319.445 711.066 319.143L711.27 319.759Z" fill="#5B8404"/>
<path d="M707.237 318.081C706.411 318.649 704.643 319.936 704.177 320.545C704.114 320.41 704.026 320.098 704.148 319.868C703.458 320.995 702.094 323.184 701.933 323.298C701.77 323.414 701.71 322.815 701.7 322.501C701.525 322.634 701.251 323.11 701.554 323.95C701.146 324.446 700.307 325.515 700.214 325.834C700.029 325.17 699.684 323.733 699.777 323.298C699.573 323.685 699.287 324.849 699.777 326.414L699.078 327.754C698.852 327.267 698.442 326.328 698.36 325.963C698.356 326.344 698.358 327.378 698.815 328.189L697.795 329.711C697.55 329.158 697.076 328.057 697.015 327.796C697.046 328.133 697.183 330.009 697.387 330.327L694.473 334.203C694.085 333.056 693.343 330.718 693.483 330.544C693.646 330.341 694.695 328.407 695.238 327.999C694.637 328.352 693.592 329.049 693.483 329.457V327.537C693.803 327.308 694.491 326.805 694.677 326.631H693.483L693.92 324.675C694.712 323.904 696.366 322.354 696.756 322.217C696.03 322.438 694.547 322.954 694.269 323.298C694.658 322.537 695.458 321.016 695.552 321.016C695.645 321.016 696.562 320.702 697.009 320.545V320.255H696.018L697.387 318.697C698.145 318.407 699.888 317.835 700.797 317.864C699.971 317.804 698.285 317.69 698.145 317.719C699.505 316.777 702.976 315.19 705.984 316.379C706.324 316.669 707.05 317.415 707.237 318.081Z" fill="#5B8404"/>
<mask id="mask4" mask-type="alpha" maskUnits="userSpaceOnUse" x="728" y="350" width="5" height="44">
<path d="M729.984 368.397C730.163 373.737 729.252 387.248 728.658 392.785L730.994 393.105C731.39 392.396 731.832 380.866 732.003 375.189C732.098 373.85 732.043 367.388 731.627 362.49C731.212 357.593 730.004 352.614 729.41 350.481L728.381 350.801C729.695 353.34 729.806 363.056 729.984 368.397Z" fill="#92742E"/>
</mask>
<g mask="url(#mask4)">
<path d="M729.984 368.397C730.163 373.737 729.252 387.248 728.658 392.785L730.994 393.105C731.39 392.396 731.832 380.866 732.003 375.189C732.098 373.85 732.043 367.388 731.627 362.49C731.212 357.593 730.004 352.614 729.41 350.481L728.381 350.801C729.695 353.34 729.806 363.056 729.984 368.397Z" fill="#92742E"/>
<path fill-rule="evenodd" clip-rule="evenodd" d="M732.051 389.118C731.943 390.391 731.076 391.382 730.024 391.382C728.971 391.382 728.105 390.391 727.997 389.118C727.989 389.207 727.985 389.297 727.985 389.389C727.985 390.789 728.898 391.924 730.024 391.924C731.15 391.924 732.063 390.789 732.063 389.389C732.063 389.297 732.059 389.207 732.051 389.118Z" fill="#715219"/>
<path fill-rule="evenodd" clip-rule="evenodd" d="M732.447 384.984C732.338 386.256 731.472 387.248 730.42 387.248C729.367 387.248 728.501 386.256 728.392 384.984C728.385 385.073 728.381 385.163 728.381 385.254C728.381 386.654 729.294 387.789 730.42 387.789C731.546 387.789 732.459 386.654 732.459 385.254C732.459 385.163 732.455 385.073 732.447 384.984Z" fill="#715219"/>
<path fill-rule="evenodd" clip-rule="evenodd" d="M733.12 380.898C733.012 382.171 732.145 383.163 731.093 383.163C730.04 383.163 729.174 382.171 729.065 380.898C729.058 380.987 729.054 381.078 729.054 381.169C729.054 382.569 729.967 383.704 731.093 383.704C732.219 383.704 733.132 382.569 733.132 381.169C733.132 381.078 733.128 380.987 733.12 380.898Z" fill="#715219"/>
<path fill-rule="evenodd" clip-rule="evenodd" d="M733.12 376.075C733.012 377.348 732.145 378.339 731.093 378.339C730.04 378.339 729.174 377.348 729.065 376.075C729.058 376.164 729.054 376.254 729.054 376.346C729.054 377.746 729.967 378.88 731.093 378.88C732.219 378.88 733.132 377.746 733.132 376.346C733.132 376.254 733.128 376.164 733.12 376.075Z" fill="#715219"/>
<path fill-rule="evenodd" clip-rule="evenodd" d="M733.12 371.793C733.012 373.065 732.145 374.057 731.093 374.057C730.04 374.057 729.174 373.065 729.065 371.793C729.058 371.882 729.054 371.972 729.054 372.063C729.054 373.463 729.967 374.598 731.093 374.598C732.219 374.598 733.132 373.463 733.132 372.063C733.132 371.972 733.128 371.882 733.12 371.793Z" fill="#715219"/>
<path fill-rule="evenodd" clip-rule="evenodd" d="M733.12 367.855C733.012 369.128 732.145 370.119 731.093 370.119C730.04 370.119 729.174 369.128 729.065 367.855C729.058 367.944 729.054 368.034 729.054 368.126C729.054 369.526 729.967 370.661 731.093 370.661C732.219 370.661 733.132 369.526 733.132 368.126C733.132 368.034 733.128 367.944 733.12 367.855Z" fill="#715219"/>
<path fill-rule="evenodd" clip-rule="evenodd" d="M733.199 363.918C733.091 365.19 732.225 366.182 731.172 366.182C730.12 366.182 729.253 365.19 729.145 363.918C729.137 364.007 729.133 364.097 729.133 364.188C729.133 365.588 730.046 366.723 731.172 366.723C732.298 366.723 733.211 365.588 733.211 364.188C733.211 364.097 733.207 364.007 733.199 363.918Z" fill="#715219"/>
<path fill-rule="evenodd" clip-rule="evenodd" d="M733.199 359.98C733.091 361.253 732.225 362.244 731.172 362.244C730.12 362.244 729.253 361.253 729.145 359.98C729.137 360.069 729.133 360.159 729.133 360.251C729.133 361.651 730.046 362.786 731.172 362.786C732.298 362.786 733.211 361.651 733.211 360.251C733.211 360.159 733.207 360.069 733.199 359.98Z" fill="#715219"/>
<path fill-rule="evenodd" clip-rule="evenodd" d="M732.447 356.239C732.338 357.512 731.472 358.503 730.42 358.503C729.367 358.503 728.501 357.512 728.392 356.239C728.385 356.328 728.381 356.419 728.381 356.51C728.381 357.91 729.294 359.045 730.42 359.045C731.546 359.045 732.459 357.91 732.459 356.51C732.459 356.419 732.455 356.328 732.447 356.239Z" fill="#715219"/>
<path fill-rule="evenodd" clip-rule="evenodd" d="M731.101 352.745C730.992 354.017 730.126 355.009 729.074 355.009C728.021 355.009 727.155 354.017 727.046 352.745C727.039 352.834 727.035 352.924 727.035 353.016C727.035 354.415 727.948 355.55 729.074 355.55C730.2 355.55 731.113 354.415 731.113 353.016C731.113 352.924 731.109 352.834 731.101 352.745Z" fill="#715219"/>
<path fill-rule="evenodd" clip-rule="evenodd" d="M730.944 349.988C730.843 351.261 730.044 352.253 729.074 352.253C728.103 352.253 727.304 351.261 727.204 349.988C727.197 350.077 727.193 350.168 727.193 350.259C727.193 351.659 728.035 352.794 729.074 352.794C730.112 352.794 730.954 351.659 730.954 350.259C730.954 350.168 730.951 350.077 730.944 349.988Z" fill="#715219"/>
</g>
<path d="M730.383 338.672C730.668 338.928 731.082 342.043 731.253 343.569L729.254 348.934C728.106 345.776 725.881 339.454 726.166 339.435C726.523 339.41 727.71 340.468 727.611 340.124C727.532 339.848 726.536 339.041 726.047 338.672L725.711 337.737C725.929 337.737 726.364 337.712 726.364 337.613C726.364 337.515 726.232 337.441 726.166 337.417H725.533L725.236 336.506C725.521 336.408 726.252 336.465 726.582 336.506C724.899 335.669 724.939 336.235 724.939 336.014C724.939 335.837 724.081 334.496 723.652 333.848C725.513 333.11 726.938 334.07 727.196 334.119C727.453 334.168 727.71 336.383 727.789 336.235C727.853 336.117 727.763 335.005 727.71 334.463L729.076 335.768L728.937 337.737L729.076 337.909L729.373 336.235L730.165 337.909L729.709 339.779L729.65 340.862L730.383 338.672Z" fill="#5B8404"/>
<path d="M729.129 350.203C729.13 350.24 729.132 350.276 729.133 350.312C729.137 350.281 729.135 350.244 729.129 350.203C729.022 347.755 728.614 342.941 727.787 342.437L727.55 342.831C727.543 342.421 727.55 341.674 727.352 341.354C727.154 341.034 726.224 340.058 725.749 339.435L726.184 341.453L725.749 340.616L725.293 339.016L723.947 338.056L724.482 339.435C724.356 339.312 723.995 338.829 723.551 337.884L721.928 337.392C722.212 337.737 722.779 338.485 722.779 338.721C722.779 339.016 721.71 337.392 721.493 337.392C721.275 337.392 719.018 337.687 718.207 338.426L720.107 339.631C720.523 339.5 721.445 339.277 721.809 339.435L720.602 339.878L721.275 340.444L721.928 340.222L722.166 340.444L721.572 340.714L722.463 341.453C722.872 341.42 723.813 341.462 724.304 341.896H722.898L723.947 342.831L724.482 342.683L724.66 342.978L723.947 343.421C725.648 345.299 728.963 349.174 729.129 350.203Z" fill="#86AB39"/>
<path d="M726.181 348.875C726.32 348.849 728.852 350.896 729.011 351.026C729.185 349.616 728.819 348.193 728.615 347.657C727.603 344.741 725.806 343.51 725.299 343.206C725.269 343.18 725.24 343.16 725.212 343.148C725.119 343.11 725.162 343.124 725.299 343.206C725.623 343.495 725.978 344.581 726.119 344.967C725.856 344.56 724.831 343.345 724.282 342.708L723.075 342.397L723.352 343.2L723.134 343.148L722.442 342.267L720.74 342.216L722.343 343.589C722.376 343.762 722.422 344.045 722.343 343.796C722.263 343.548 720.634 342.812 719.83 342.475L718.623 342.967L719.236 343.667H718.92L718.267 343.174C717.871 343.425 717.119 343.926 717.277 343.926C717.436 343.926 718.372 344.496 718.821 344.781C718.214 344.643 716.941 344.372 716.704 344.392C716.466 344.413 715.523 345.818 715.081 346.517C715.097 346.662 717.211 347.113 718.267 347.32C718.33 347.051 719.071 346.362 719.434 346.051L718.702 347.32L720.008 347.528C720.272 347.165 720.815 346.419 720.878 346.336C720.942 346.253 721.05 346.301 721.096 346.336L720.324 347.528L721.413 347.657C721.723 347.32 722.362 346.621 722.442 346.517C722.516 346.419 722.985 346.366 723.143 346.345C722.952 346.443 722.24 347.244 721.888 347.657C722.932 347.761 723.339 347.994 723.411 348.098L724.104 347.528L724.282 347.657L723.926 348.098L724.974 348.331C725.37 348.29 726.247 348.556 726.636 348.694C726.438 348.763 726.07 348.896 726.181 348.875Z" fill="#6B9C05"/>
<path d="M729.054 351.008C729.892 349.015 731.735 344.964 732.4 344.708C732.149 344.757 731.604 344.89 731.43 345.028C731.256 345.166 731.779 344.642 732.063 344.363L732.796 344.044L733.429 343.084L732.835 343.035L733.053 342.838H733.627L734.458 341.73C734.058 341.774 733.276 341.873 733.021 341.95C733.311 341.814 734.363 341.288 734.953 340.992L735.547 340.155L734.953 339.934L735.211 339.811H735.903L736.359 338.999H734.953C734.696 338.999 736.675 338.457 736.794 338.457C736.913 338.457 737.922 336.538 738.002 336.538C738.081 336.538 735.686 336.341 734.953 336.931L734.142 338.457L734.458 337.128L733.132 338.063L732.796 339.638H732.637L732.835 338.26L731.766 339.269L731.548 340.992L731.232 341.73L731.43 339.811L730.658 340.992L730.044 341.976V342.936H729.866L729.727 342.493C729.384 343.51 728.765 345.727 729.035 346.455L728.757 346.062C728.817 347.637 728.959 350.831 729.054 351.008Z" fill="#6B9C05"/>
<path d="M729.155 351.001C730.026 350.14 731.816 348.417 732.006 348.417C732.196 348.417 731.874 348.286 731.689 348.22L734.401 346.719L733.965 346.498L734.223 346.325L734.896 346.498L736.262 345.513C735.919 345.292 735.165 344.849 734.896 344.849C734.627 344.849 735.219 344.767 735.549 344.726L736.836 345.316L737.766 344.849L736.737 344.012H737.053L738.043 344.726L739.211 344.209L738.301 343.175C738.716 343.389 739.555 343.855 739.587 344.012C739.619 344.17 741.659 343.307 742.675 342.855C742.193 342.257 741.151 341.059 740.834 341.059C740.273 341.19 739.08 341.522 738.795 341.797C739.152 341.453 739.928 340.754 740.181 340.714L739.033 340.271L738.301 340.96H738.122L738.518 340.148H737.152C736.538 340.627 735.262 341.682 735.022 342.105C735.351 341.51 735.991 340.398 736.207 340.184C736.266 340.161 736.289 340.148 736.262 340.148C736.249 340.148 736.231 340.161 736.207 340.184C735.923 340.297 734.802 340.654 734.539 340.96L733.965 342.314V341.28C733.965 340.96 729.749 346.227 729.155 348.737C729.076 349.172 728.965 350.233 729.155 351.001Z" fill="#5B8404"/>
<path d="M729.135 351.001C729.973 350.468 731.756 349.461 732.184 349.697V349.402C732.712 349.574 733.787 349.948 733.866 350.066C734.15 350.082 734.737 350.13 734.817 350.189C734.916 350.263 734.658 349.697 734.599 349.697C734.551 349.697 734.724 349.631 734.817 349.598L735.292 350.312C735.747 350.378 736.689 350.534 736.816 350.632C736.967 350.75 736.121 349.04 735.944 348.895C736.161 349.005 736.563 349.227 736.578 349.303C736.598 349.402 737.212 350.607 737.212 350.755L738.201 351.026C738.116 350.616 737.924 349.776 737.845 349.697C737.766 349.618 737.931 349.664 738.023 349.697C738.175 350.115 738.479 350.982 738.479 351.1L739.627 351.42C739.567 350.977 739.425 350.081 739.33 350.041L739.488 350.091C739.673 350.509 740.042 351.38 740.042 351.518C740.042 351.656 742.088 352.002 743.111 352.158C742.932 351.362 742.513 349.736 742.259 349.598C741.765 349.434 740.66 349.096 740.201 349.057C740.696 348.991 741.717 348.88 741.844 348.959L741.19 347.95L740.3 348.073L740.201 347.95L740.834 347.507L739.864 346.645C739.117 346.661 737.611 346.724 737.321 346.85C737.841 346.567 738.888 346.035 739.152 346.055C738.67 345.874 737.675 345.513 737.548 345.513C737.265 345.694 736.681 346.055 736.618 346.055C736.555 346.055 736.486 345.989 736.46 345.956L736.915 345.366H736.163C734.196 346.416 730.204 348.624 729.967 349.057C729.67 349.598 729.135 350.484 729.135 351.001Z" fill="#6B9C05"/>
<path d="M726.186 351.986C726.835 351.652 728.423 351.141 729.135 350.928L729.036 350.288C727.152 348.556 724.292 348.155 723.098 348.172C723.377 348.23 724.147 348.874 724.52 349.209C724.305 349.051 722.987 348.621 722.326 348.418C721.956 348.533 721.233 348.762 721.297 348.762C721.36 348.762 721.679 349.14 721.831 349.328C721.791 349.353 721.696 349.402 721.633 349.402C721.57 349.402 721.026 349.123 720.762 348.984L719.416 349.894C719.685 349.816 720.729 350.124 721.217 350.288C720.932 350.268 719.489 350.51 718.802 350.633L718.03 351.765L718.703 351.986L718.605 352.158L717.813 352.257L717.397 353.463C717.967 353.148 718.611 353.135 718.862 353.167C718.498 353.266 717.588 353.914 717.179 354.226C716.942 355.171 717.173 356.391 717.318 356.884C717.35 356.746 718.915 355.776 719.693 355.309C719.662 355.151 719.825 354.176 719.911 353.709C719.911 353.847 719.977 354.701 720.01 355.112L720.94 354.644C720.893 354.506 721.026 353.602 721.099 353.167H721.217L721.158 354.472L721.95 354.053C722.049 353.619 722.247 352.725 722.247 352.626C722.247 352.528 722.577 352.208 722.742 352.06C722.678 352.119 722.385 353.282 722.247 353.857C722.389 353.797 723.204 353.422 723.593 353.241L723.949 352.454C723.976 352.446 724.036 352.434 724.068 352.454C724.1 352.473 724.002 352.856 723.949 353.044L724.899 352.626C725.184 352.272 725.968 351.773 726.325 351.568L726.186 351.986Z" fill="#5B8404"/>
<path d="M728.926 350.847C729.487 351.232 730.687 352.107 731.004 352.52C731.047 352.428 731.106 352.216 731.024 352.06C731.493 352.825 732.419 354.313 732.528 354.39C732.639 354.469 732.68 354.062 732.687 353.849C732.805 353.939 732.992 354.262 732.786 354.833C733.063 355.17 733.633 355.897 733.696 356.113C733.822 355.662 734.057 354.686 733.993 354.39C734.132 354.653 734.326 355.444 733.993 356.507L734.468 357.417C734.621 357.086 734.9 356.448 734.955 356.201C734.958 356.46 734.957 357.162 734.646 357.713L735.339 358.746C735.506 358.371 735.828 357.623 735.869 357.446C735.848 357.675 735.755 358.949 735.616 359.165L737.596 361.798C737.86 361.019 738.364 359.43 738.269 359.312C738.158 359.175 737.445 357.861 737.077 357.584C737.485 357.823 738.194 358.297 738.269 358.574V357.27C738.051 357.114 737.584 356.773 737.457 356.654H738.269L737.972 355.326C737.434 354.802 736.31 353.749 736.045 353.656C736.539 353.806 737.546 354.156 737.734 354.39C737.47 353.874 736.927 352.84 736.863 352.84C736.8 352.84 736.177 352.627 735.874 352.52V352.323H736.547L735.616 351.265C735.102 351.068 733.918 350.679 733.3 350.699C733.861 350.658 735.007 350.581 735.102 350.6C734.178 349.961 731.82 348.883 729.777 349.69C729.546 349.887 729.052 350.394 728.926 350.847Z" fill="#5B8404"/>
<mask id="mask5" mask-type="alpha" maskUnits="userSpaceOnUse" x="680" y="352" width="6" height="49">
<path d="M683.278 372.843C683.077 378.891 684.108 394.19 684.78 400.46L682.135 400.822C681.687 400.019 681.186 386.963 680.992 380.535C680.884 379.019 680.947 371.701 681.418 366.155C681.889 360.61 683.256 354.971 683.928 352.556L685.094 352.918C683.606 355.794 683.48 366.796 683.278 372.843Z" fill="#92742E"/>
</mask>
<g mask="url(#mask5)">
<path d="M683.278 372.843C683.077 378.891 684.108 394.19 684.78 400.46L682.135 400.822C681.687 400.019 681.186 386.963 680.992 380.535C680.884 379.019 680.947 371.701 681.418 366.155C681.889 360.61 683.256 354.971 683.928 352.556L685.094 352.918C683.606 355.794 683.48 366.796 683.278 372.843Z" fill="#92742E"/>
<path fill-rule="evenodd" clip-rule="evenodd" d="M680.938 396.307C681.061 397.749 682.042 398.871 683.234 398.871C684.425 398.871 685.406 397.749 685.529 396.307C685.538 396.408 685.542 396.51 685.542 396.614C685.542 398.199 684.509 399.484 683.234 399.484C681.958 399.484 680.925 398.199 680.925 396.614C680.925 396.51 680.929 396.408 680.938 396.307Z" fill="#715219"/>
<path fill-rule="evenodd" clip-rule="evenodd" d="M680.489 391.626C680.613 393.067 681.593 394.19 682.785 394.19C683.977 394.19 684.958 393.067 685.081 391.626C685.09 391.727 685.094 391.829 685.094 391.932C685.094 393.518 684.06 394.803 682.785 394.803C681.51 394.803 680.476 393.518 680.476 391.932C680.476 391.829 680.481 391.727 680.489 391.626Z" fill="#715219"/>
<path fill-rule="evenodd" clip-rule="evenodd" d="M679.727 387C679.85 388.441 680.831 389.564 682.023 389.564C683.215 389.564 684.196 388.441 684.319 387C684.327 387.101 684.332 387.203 684.332 387.306C684.332 388.892 683.298 390.177 682.023 390.177C680.748 390.177 679.714 388.892 679.714 387.306C679.714 387.203 679.719 387.101 679.727 387Z" fill="#715219"/>
<path fill-rule="evenodd" clip-rule="evenodd" d="M679.727 381.538C679.85 382.979 680.831 384.102 682.023 384.102C683.215 384.102 684.196 382.979 684.319 381.538C684.327 381.639 684.332 381.741 684.332 381.844C684.332 383.43 683.298 384.715 682.023 384.715C680.748 384.715 679.714 383.43 679.714 381.844C679.714 381.741 679.719 381.639 679.727 381.538Z" fill="#715219"/>
<path fill-rule="evenodd" clip-rule="evenodd" d="M679.727 376.689C679.85 378.13 680.831 379.253 682.023 379.253C683.215 379.253 684.196 378.13 684.319 376.689C684.327 376.79 684.332 376.892 684.332 376.996C684.332 378.581 683.298 379.866 682.023 379.866C680.748 379.866 679.714 378.581 679.714 376.996C679.714 376.892 679.719 376.79 679.727 376.689Z" fill="#715219"/>
<path fill-rule="evenodd" clip-rule="evenodd" d="M679.727 372.23C679.85 373.671 680.831 374.794 682.023 374.794C683.215 374.794 684.196 373.671 684.319 372.23C684.327 372.331 684.332 372.433 684.332 372.537C684.332 374.122 683.298 375.407 682.023 375.407C680.748 375.407 679.714 374.122 679.714 372.537C679.714 372.433 679.719 372.331 679.727 372.23Z" fill="#715219"/>
<path fill-rule="evenodd" clip-rule="evenodd" d="M679.638 367.772C679.761 369.213 680.742 370.335 681.933 370.335C683.125 370.335 684.106 369.213 684.229 367.772C684.238 367.872 684.242 367.975 684.242 368.078C684.242 369.663 683.209 370.948 681.933 370.948C680.658 370.948 679.625 369.663 679.625 368.078C679.625 367.975 679.629 367.872 679.638 367.772Z" fill="#715219"/>
<path fill-rule="evenodd" clip-rule="evenodd" d="M679.638 363.313C679.761 364.754 680.742 365.877 681.933 365.877C683.125 365.877 684.106 364.754 684.229 363.313C684.238 363.414 684.242 363.516 684.242 363.619C684.242 365.205 683.209 366.49 681.933 366.49C680.658 366.49 679.625 365.205 679.625 363.619C679.625 363.516 679.629 363.414 679.638 363.313Z" fill="#715219"/>
<path fill-rule="evenodd" clip-rule="evenodd" d="M680.489 359.077C680.613 360.518 681.593 361.641 682.785 361.641C683.977 361.641 684.958 360.518 685.081 359.077C685.09 359.178 685.094 359.28 685.094 359.384C685.094 360.969 684.06 362.254 682.785 362.254C681.51 362.254 680.476 360.969 680.476 359.384C680.476 359.28 680.481 359.178 680.489 359.077Z" fill="#715219"/>
<path fill-rule="evenodd" clip-rule="evenodd" d="M682.014 355.12C682.137 356.561 683.118 357.684 684.309 357.684C685.501 357.684 686.482 356.561 686.605 355.12C686.614 355.221 686.618 355.323 686.618 355.426C686.618 357.012 685.585 358.297 684.309 358.297C683.034 358.297 682.001 357.012 682.001 355.426C682.001 355.323 682.005 355.221 682.014 355.12Z" fill="#715219"/>
<path fill-rule="evenodd" clip-rule="evenodd" d="M682.192 351.999C682.306 353.44 683.21 354.563 684.309 354.563C685.409 354.563 686.313 353.44 686.427 351.999C686.435 352.099 686.439 352.202 686.439 352.305C686.439 353.89 685.485 355.176 684.309 355.176C683.133 355.176 682.18 353.89 682.18 352.305C682.18 352.202 682.184 352.099 682.192 351.999Z" fill="#715219"/>
</g>
<path d="M686.327 339.347C686.65 339.637 687.119 343.165 687.313 344.893L685.049 350.968C683.749 347.391 681.23 340.233 681.552 340.211C681.956 340.183 683.301 341.381 683.189 340.991C683.099 340.679 681.971 339.765 681.418 339.347L681.037 338.288C681.283 338.288 681.777 338.26 681.777 338.149C681.777 338.037 681.627 337.954 681.552 337.926H680.835L680.499 336.895C680.822 336.783 681.649 336.848 682.023 336.895C680.118 335.947 680.163 336.588 680.163 336.337C680.163 336.137 679.191 334.619 678.706 333.885C680.813 333.049 682.427 334.136 682.718 334.192C683.009 334.247 683.301 336.755 683.39 336.588C683.462 336.454 683.36 335.195 683.301 334.582L684.847 336.059L684.69 338.288L684.847 338.483L685.184 336.588L686.08 338.483L685.565 340.601L685.497 341.827L686.327 339.347Z" fill="#5B8404"/>
<path d="M684.907 352.405C684.909 352.447 684.911 352.488 684.912 352.528C684.917 352.492 684.915 352.451 684.907 352.405C684.787 349.632 684.325 344.182 683.388 343.611L683.119 344.057C683.112 343.592 683.119 342.747 682.895 342.385C682.671 342.022 681.617 340.917 681.079 340.211L681.573 342.496L681.079 341.548L680.564 339.737L679.04 338.65L679.645 340.211C679.503 340.072 679.094 339.525 678.591 338.455L676.753 337.898C677.075 338.288 677.717 339.135 677.717 339.403C677.717 339.737 676.507 337.898 676.26 337.898C676.014 337.898 673.458 338.232 672.539 339.068L674.691 340.434C675.162 340.285 676.206 340.033 676.619 340.211L675.252 340.712L676.014 341.353L676.753 341.103L677.022 341.353L676.35 341.66L677.359 342.496C677.822 342.459 678.887 342.507 679.443 342.998H677.852L679.04 344.057L679.645 343.889L679.847 344.224L679.04 344.725C680.966 346.852 684.719 351.24 684.907 352.405Z" fill="#86AB39"/>
<path d="M681.569 350.901C681.726 350.872 684.594 353.19 684.773 353.336C684.97 351.74 684.557 350.128 684.325 349.522C683.179 346.219 681.144 344.825 680.57 344.482C680.537 344.452 680.504 344.43 680.471 344.416C680.366 344.373 680.415 344.389 680.57 344.482C680.937 344.808 681.339 346.039 681.498 346.475C681.201 346.015 680.04 344.638 679.418 343.917L678.052 343.565L678.365 344.475L678.119 344.416L677.335 343.419L675.408 343.36L677.223 344.915C677.26 345.111 677.312 345.432 677.223 345.15C677.133 344.868 675.288 344.035 674.377 343.653L673.01 344.211L673.705 345.003H673.347L672.607 344.446C672.159 344.729 671.308 345.297 671.487 345.297C671.666 345.297 672.727 345.942 673.235 346.265C672.547 346.108 671.106 345.801 670.837 345.825C670.568 345.848 669.5 347.439 669 348.231C669.018 348.395 671.412 348.906 672.607 349.14C672.679 348.835 673.518 348.055 673.929 347.703L673.1 349.14L674.579 349.375C674.878 348.964 675.493 348.119 675.565 348.025C675.636 347.931 675.759 347.986 675.811 348.025L674.937 349.375L676.17 349.522C676.521 349.14 677.245 348.348 677.335 348.231C677.419 348.12 677.951 348.059 678.129 348.036C677.913 348.146 677.107 349.054 676.707 349.522C677.89 349.639 678.35 349.903 678.433 350.021L679.217 349.375L679.418 349.522L679.015 350.021L680.203 350.285C680.651 350.238 681.644 350.539 682.085 350.696C681.86 350.774 681.444 350.924 681.569 350.901Z" fill="#6B9C05"/>
<path d="M684.823 353.316C685.772 351.059 687.858 346.472 688.611 346.182C688.327 346.238 687.71 346.388 687.513 346.545C687.315 346.701 687.909 346.108 688.23 345.792L689.059 345.43L689.776 344.343L689.104 344.287L689.351 344.064H690.001L690.942 342.81C690.489 342.86 689.603 342.972 689.315 343.059C689.643 342.905 690.834 342.309 691.502 341.974L692.175 341.027L691.502 340.776L691.794 340.637H692.578L693.094 339.717H691.502C691.211 339.717 693.453 339.104 693.587 339.104C693.721 339.104 694.865 336.93 694.954 336.93C695.044 336.93 692.332 336.707 691.502 337.376L690.583 339.104L690.942 337.599L689.44 338.658L689.059 340.442H688.88L689.104 338.881L687.894 340.024L687.647 341.974L687.288 342.81L687.513 340.637L686.638 341.974L685.944 343.089V344.176H685.742L685.585 343.674C685.196 344.826 684.496 347.336 684.8 348.161L684.487 347.715C684.554 349.498 684.715 353.116 684.823 353.316Z" fill="#6B9C05"/>
<path d="M684.937 353.308C685.923 352.333 687.95 350.382 688.165 350.382C688.38 350.382 688.015 350.234 687.806 350.159L690.877 348.46L690.384 348.209L690.675 348.014L691.437 348.209L692.984 347.094C692.595 346.843 691.742 346.342 691.437 346.342C691.132 346.342 691.803 346.249 692.177 346.202L693.634 346.871L694.688 346.342L693.522 345.394H693.881L695.001 346.202L696.324 345.617L695.293 344.447C695.763 344.688 696.714 345.216 696.75 345.394C696.786 345.572 699.096 344.595 700.246 344.084C699.701 343.406 698.52 342.05 698.162 342.05C697.527 342.199 696.176 342.574 695.853 342.886C696.257 342.496 697.135 341.705 697.422 341.66L696.122 341.158L695.293 341.939H695.091L695.539 341.019H693.993C693.297 341.562 691.852 342.756 691.58 343.234C691.953 342.56 692.678 341.302 692.922 341.06C692.988 341.034 693.015 341.019 692.984 341.019C692.97 341.019 692.949 341.033 692.922 341.06C692.6 341.188 691.331 341.592 691.034 341.939L690.384 343.471V342.301C690.384 341.939 685.609 347.902 684.937 350.745C684.847 351.237 684.722 352.439 684.937 353.308Z" fill="#5B8404"/>
<path d="M684.915 353.308C685.863 352.705 687.882 351.564 688.366 351.832V351.497C688.964 351.692 690.182 352.116 690.272 352.25C690.593 352.268 691.258 352.322 691.348 352.389C691.46 352.472 691.168 351.832 691.101 351.832C691.047 351.832 691.243 351.757 691.348 351.72L691.886 352.528C692.401 352.602 693.468 352.779 693.612 352.89C693.783 353.024 692.825 351.088 692.625 350.923C692.87 351.048 693.325 351.299 693.343 351.386C693.365 351.497 694.06 352.863 694.06 353.03L695.181 353.336C695.083 352.872 694.867 351.921 694.777 351.832C694.687 351.742 694.874 351.794 694.979 351.832C695.151 352.305 695.494 353.286 695.494 353.42L696.794 353.782C696.727 353.281 696.566 352.266 696.458 352.222L696.638 352.277C696.847 352.751 697.265 353.738 697.265 353.894C697.265 354.05 699.581 354.442 700.74 354.618C700.538 353.717 700.063 351.876 699.776 351.72C699.215 351.534 697.965 351.152 697.445 351.107C698.005 351.033 699.161 350.906 699.305 350.995L698.565 349.853L697.557 349.992L697.445 349.853L698.162 349.351L697.063 348.376C696.218 348.394 694.511 348.465 694.184 348.608C694.772 348.287 695.958 347.685 696.257 347.707C695.711 347.503 694.584 347.094 694.441 347.094C694.12 347.298 693.459 347.707 693.387 347.707C693.316 347.707 693.238 347.633 693.208 347.596L693.724 346.927H692.872C690.645 348.116 686.125 350.616 685.856 351.107C685.52 351.72 684.915 352.723 684.915 353.308Z" fill="#6B9C05"/>
<path d="M681.575 354.424C682.31 354.045 684.108 353.467 684.915 353.225L684.802 352.501C682.669 350.539 679.43 350.086 678.078 350.104C678.394 350.17 679.266 350.9 679.688 351.279C679.445 351.099 677.953 350.613 677.204 350.383C676.785 350.513 675.967 350.773 676.038 350.773C676.11 350.773 676.472 351.2 676.643 351.414C676.599 351.442 676.491 351.498 676.419 351.498C676.348 351.498 675.732 351.182 675.433 351.024L673.909 352.055C674.214 351.966 675.396 352.315 675.949 352.501C675.626 352.479 673.991 352.752 673.214 352.891L672.34 354.173L673.102 354.424L672.99 354.619L672.093 354.73L671.623 356.096C672.268 355.739 672.997 355.724 673.281 355.761C672.869 355.873 671.839 356.607 671.376 356.96C671.107 358.03 671.368 359.412 671.533 359.969C671.569 359.813 673.341 358.715 674.223 358.186C674.187 358.007 674.372 356.904 674.469 356.374C674.469 356.53 674.544 357.498 674.581 357.963L675.635 357.433C675.581 357.277 675.732 356.254 675.814 355.761H675.949L675.881 357.238L676.778 356.764C676.89 356.272 677.114 355.26 677.114 355.148C677.114 355.037 677.488 354.674 677.675 354.507C677.603 354.574 677.271 355.891 677.114 356.542C677.276 356.475 678.198 356.049 678.638 355.845L679.042 354.953C679.072 354.944 679.14 354.931 679.176 354.953C679.212 354.975 679.102 355.408 679.042 355.622L680.118 355.148C680.441 354.747 681.328 354.182 681.732 353.95L681.575 354.424Z" fill="#5B8404"/>
<path d="M684.677 353.133C685.312 353.57 686.672 354.56 687.031 355.028C687.079 354.924 687.147 354.684 687.053 354.508C687.584 355.374 688.633 357.058 688.757 357.146C688.882 357.235 688.928 356.775 688.936 356.533C689.07 356.635 689.281 357.001 689.048 357.648C689.362 358.029 690.007 358.852 690.079 359.097C690.221 358.586 690.487 357.481 690.415 357.146C690.572 357.443 690.792 358.339 690.415 359.543L690.953 360.574C691.127 360.199 691.442 359.477 691.505 359.196C691.508 359.489 691.506 360.284 691.155 360.908L691.94 362.079C692.128 361.653 692.493 360.806 692.54 360.606C692.516 360.865 692.411 362.308 692.253 362.552L694.495 365.534C694.794 364.652 695.365 362.853 695.257 362.72C695.132 362.564 694.324 361.076 693.907 360.762C694.369 361.034 695.173 361.569 695.257 361.884V360.407C695.01 360.23 694.481 359.844 694.338 359.71H695.257L694.921 358.205C694.311 357.612 693.039 356.42 692.739 356.315C693.298 356.485 694.439 356.881 694.652 357.146C694.353 356.561 693.737 355.391 693.665 355.391C693.594 355.391 692.888 355.149 692.545 355.028V354.805H693.307L692.253 353.607C691.671 353.384 690.33 352.944 689.631 352.966C690.266 352.92 691.563 352.832 691.671 352.855C690.625 352.13 687.954 350.909 685.641 351.824C685.379 352.046 684.821 352.621 684.677 353.133Z" fill="#5B8404"/>
<path d="M165.848 362.047C128.194 350.096 6.5 357.067 -49.6402 362.047V458H806.64V385.604C795.677 383.114 765.811 378.135 734.055 378.135C694.36 378.135 653.53 366.643 607.598 349.981C561.665 333.318 554.293 347.108 503.823 362.047C453.354 376.986 387.006 388.477 342.774 378.135C298.543 367.792 212.915 376.986 165.848 362.047Z" fill="#FFD954"/>
</g>
<path fill-rule="evenodd" clip-rule="evenodd" d="M425.066 59.5453C424.267 58.0315 422.681 57 420.854 57C418.505 57 416.553 58.7063 416.164 60.9503C415.526 60.6311 414.805 60.4515 414.043 60.4515C412.023 60.4515 410.297 61.7127 409.606 63.4926C409.379 63.5811 409.161 63.6865 408.953 63.8072C408.253 63.401 407.44 63.1686 406.573 63.1686C404.949 63.1686 403.515 63.9837 402.656 65.2282C402.595 65.2259 402.533 65.2247 402.471 65.2247C400.353 65.2247 398.558 66.6117 397.94 68.5293H450.8C450.182 66.6117 448.387 65.2247 446.269 65.2247C445.425 65.2247 444.632 65.445 443.945 65.8312C443.601 63.5344 441.624 61.7733 439.238 61.7733C438.56 61.7733 437.915 61.9154 437.331 62.1715C436.494 61.164 435.251 60.5076 433.854 60.4549C433.283 58.4599 431.45 57 429.277 57C427.45 57 425.864 58.0315 425.066 59.5453Z" fill="#B5F0FE"/>
<path fill-rule="evenodd" clip-rule="evenodd" d="M547.674 102.255C546.339 99.7244 543.688 98 540.634 98C537.001 98 533.937 100.44 532.984 103.775C530.648 103.863 528.57 104.961 527.171 106.645C526.195 106.217 525.117 105.979 523.984 105.979C519.994 105.979 516.69 108.923 516.114 112.762C514.966 112.117 513.641 111.749 512.23 111.749C508.689 111.749 505.689 114.067 504.656 117.273H593.018C591.985 114.067 588.984 111.749 585.444 111.749C585.34 111.749 585.238 111.751 585.135 111.755C583.699 109.674 581.302 108.312 578.588 108.312C577.138 108.312 575.779 108.7 574.609 109.379C574.261 109.177 573.896 109.001 573.517 108.853C572.361 105.878 569.476 103.77 566.1 103.77C564.826 103.77 563.621 104.07 562.554 104.603C561.904 100.852 558.641 98 554.714 98C551.66 98 549.008 99.7244 547.674 102.255Z" fill="#B5F0FE"/>
<path fill-rule="evenodd" clip-rule="evenodd" d="M281.355 99.8897C281.942 96.9676 280.205 94.0339 277.297 93.1908C274.39 92.3477 271.359 93.8985 270.299 96.6839C270.331 96.5266 270.369 96.3692 270.415 96.2122C271.301 93.1405 274.503 91.3705 277.566 92.259C280.63 93.1475 282.395 96.3578 281.509 99.4296C281.464 99.5864 281.412 99.7399 281.355 99.8897Z" fill="white"/>
<path fill-rule="evenodd" clip-rule="evenodd" d="M291.778 102.875C292.366 99.9527 290.628 97.0184 287.721 96.1753C284.814 95.3323 281.782 96.8826 280.723 99.6675C280.755 99.5104 280.793 99.3534 280.838 99.1967C281.724 96.1249 284.926 94.355 287.99 95.2434C291.053 96.1319 292.818 99.3423 291.932 102.414C291.887 102.571 291.836 102.725 291.778 102.875Z" fill="white"/>
<path fill-rule="evenodd" clip-rule="evenodd" d="M259.809 138.078C257.688 132.568 251.668 129.519 245.915 131.213C240.161 132.907 236.741 138.734 237.927 144.52C237.813 144.223 237.71 143.919 237.619 143.609C235.839 137.529 239.311 131.154 245.375 129.369C251.438 127.584 257.797 131.065 259.577 137.145C259.668 137.455 259.745 137.767 259.809 138.078Z" fill="white"/>
<path fill-rule="evenodd" clip-rule="evenodd" d="M280.397 131.94C278.276 126.43 272.257 123.382 266.504 125.076C260.75 126.77 257.329 132.598 258.516 138.383C258.402 138.087 258.299 137.783 258.208 137.472C256.428 131.392 259.9 125.017 265.963 123.232C272.027 121.447 278.385 124.928 280.166 131.008C280.256 131.318 280.334 131.629 280.397 131.94Z" fill="white"/>
<path fill-rule="evenodd" clip-rule="evenodd" d="M178.236 44.9655C178.105 42.7225 176.276 40.9186 173.996 40.8636C171.715 40.8087 169.802 42.5225 169.564 44.7567C169.556 44.6359 169.554 44.5138 169.557 44.3907C169.615 41.9811 171.61 40.0747 174.013 40.1327C176.416 40.1906 178.318 42.1909 178.26 44.6005C178.257 44.7235 178.249 44.8453 178.236 44.9655Z" fill="white"/>
<path fill-rule="evenodd" clip-rule="evenodd" d="M186.405 45.1346C186.274 42.8916 184.445 41.0877 182.165 41.0327C179.884 40.9778 177.971 42.6916 177.733 44.9257C177.726 44.805 177.723 44.6829 177.726 44.5598C177.784 42.1502 179.779 40.2438 182.182 40.3017C184.585 40.3597 186.487 42.36 186.429 44.7695C186.426 44.8926 186.418 45.0143 186.405 45.1346Z" fill="white"/>
<defs>
<linearGradient id="paint0_linear" x1="751" y1="0" x2="340.634" y2="699.761" gradientUnits="userSpaceOnUse">
<stop stop-color="#D3F7FF"/>
<stop offset="1" stop-color="#19BAE3"/>
</linearGradient>
<clipPath id="clip0">
<rect width="751" height="500" fill="white"/>
</clipPath>
</defs>
</svg>
