<svg width="735" height="209" viewBox="0 0 735 209" fill="none" xmlns="http://www.w3.org/2000/svg">
<mask id="mask0" mask-type="alpha" maskUnits="userSpaceOnUse" x="638" y="88" width="10" height="85">
<path d="M642.931 123.622C643.369 134.188 641.13 160.92 639.669 171.876L645.414 172.509C646.388 171.107 647.476 148.293 647.898 137.061C648.131 134.412 647.995 121.626 646.973 111.936C645.95 102.246 642.98 92.394 641.519 88.174L638.987 88.807C642.22 93.832 642.493 113.056 642.931 123.622Z" fill="#92742E"/>
</mask>
<g mask="url(#mask0)">
<path d="M642.931 123.622C643.369 134.188 641.13 160.92 639.669 171.876L645.414 172.509C646.388 171.107 647.476 148.293 647.898 137.061C648.131 134.412 647.995 121.626 646.973 111.936C645.95 102.246 642.98 92.394 641.519 88.174L638.987 88.807C642.22 93.832 642.493 113.056 642.931 123.622Z" fill="#92742E"/>
<path fill-rule="evenodd" clip-rule="evenodd" d="M648.016 164.621C647.748 167.139 645.618 169.1 643.029 169.1C640.44 169.1 638.309 167.139 638.042 164.621C638.023 164.797 638.013 164.975 638.013 165.156C638.013 167.926 640.259 170.172 643.029 170.172C645.798 170.172 648.044 167.926 648.044 165.156C648.044 164.975 648.034 164.797 648.016 164.621Z" fill="#715219"/>
<path fill-rule="evenodd" clip-rule="evenodd" d="M648.989 156.44C648.722 158.958 646.591 160.92 644.002 160.92C641.413 160.92 639.283 158.958 639.015 156.44C638.997 156.616 638.987 156.795 638.987 156.976C638.987 159.746 641.232 161.991 644.002 161.991C646.772 161.991 649.018 159.746 649.018 156.976C649.018 156.795 649.008 156.616 648.989 156.44Z" fill="#715219"/>
<path fill-rule="evenodd" clip-rule="evenodd" d="M650.645 148.358C650.378 150.876 648.247 152.837 645.658 152.837C643.069 152.837 640.938 150.876 640.671 148.358C640.652 148.534 640.643 148.712 640.643 148.893C640.643 151.663 642.888 153.908 645.658 153.908C648.428 153.908 650.673 151.663 650.673 148.893C650.673 148.712 650.664 148.534 650.645 148.358Z" fill="#715219"/>
<path fill-rule="evenodd" clip-rule="evenodd" d="M650.645 138.814C650.378 141.332 648.247 143.294 645.658 143.294C643.069 143.294 640.938 141.332 640.671 138.814C640.652 138.99 640.643 139.169 640.643 139.35C640.643 142.119 642.888 144.365 645.658 144.365C648.428 144.365 650.673 142.119 650.673 139.35C650.673 139.169 650.664 138.99 650.645 138.814Z" fill="#715219"/>
<path fill-rule="evenodd" clip-rule="evenodd" d="M650.645 130.341C650.378 132.859 648.247 134.821 645.658 134.821C643.069 134.821 640.938 132.859 640.671 130.341C640.652 130.517 640.643 130.696 640.643 130.877C640.643 133.647 642.888 135.892 645.658 135.892C648.428 135.892 650.673 133.647 650.673 130.877C650.673 130.696 650.664 130.517 650.645 130.341Z" fill="#715219"/>
<path fill-rule="evenodd" clip-rule="evenodd" d="M650.645 122.551C650.378 125.069 648.247 127.03 645.658 127.03C643.069 127.03 640.938 125.069 640.671 122.551C640.652 122.727 640.643 122.905 640.643 123.086C640.643 125.856 642.888 128.102 645.658 128.102C648.428 128.102 650.673 125.856 650.673 123.086C650.673 122.905 650.664 122.727 650.645 122.551Z" fill="#715219"/>
<path fill-rule="evenodd" clip-rule="evenodd" d="M650.84 114.76C650.572 117.278 648.442 119.24 645.853 119.24C643.264 119.24 641.133 117.278 640.866 114.76C640.847 114.936 640.837 115.115 640.837 115.296C640.837 118.065 643.083 120.311 645.853 120.311C648.623 120.311 650.868 118.065 650.868 115.296C650.868 115.115 650.858 114.936 650.84 114.76Z" fill="#715219"/>
<path fill-rule="evenodd" clip-rule="evenodd" d="M650.84 106.969C650.572 109.487 648.442 111.449 645.853 111.449C643.264 111.449 641.133 109.487 640.866 106.969C640.847 107.145 640.837 107.324 640.837 107.505C640.837 110.275 643.083 112.52 645.853 112.52C648.623 112.52 650.868 110.275 650.868 107.505C650.868 107.324 650.858 107.145 650.84 106.969Z" fill="#715219"/>
<path fill-rule="evenodd" clip-rule="evenodd" d="M648.989 99.568C648.722 102.086 646.591 104.048 644.002 104.048C641.413 104.048 639.283 102.086 639.015 99.568C638.997 99.744 638.987 99.9227 638.987 100.104C638.987 102.873 641.232 105.119 644.002 105.119C646.772 105.119 649.018 102.873 649.018 100.104C649.018 99.9227 649.008 99.744 648.989 99.568Z" fill="#715219"/>
<path fill-rule="evenodd" clip-rule="evenodd" d="M645.678 92.6537C645.411 95.1717 643.28 97.1334 640.691 97.1334C638.102 97.1334 635.972 95.1717 635.704 92.6537C635.686 92.8297 635.676 93.0084 635.676 93.1893C635.676 95.9592 637.921 98.2046 640.691 98.2046C643.461 98.2046 645.707 95.9592 645.707 93.1893C645.707 93.0084 645.697 92.8297 645.678 92.6537Z" fill="#715219"/>
<path fill-rule="evenodd" clip-rule="evenodd" d="M645.291 87.2002C645.044 89.7182 643.079 91.6799 640.691 91.6799C638.303 91.6799 636.338 89.7182 636.092 87.2002C636.074 87.3762 636.066 87.5549 636.066 87.7358C636.066 90.5057 638.137 92.7511 640.691 92.7511C643.246 92.7511 645.317 90.5057 645.317 87.7358C645.317 87.5549 645.308 87.3762 645.291 87.2002Z" fill="#715219"/>
</g>
<path d="M636.309 65.0939C635.608 65.6003 634.589 71.7647 634.167 74.7836L639.085 85.3985C641.909 79.1497 647.382 66.6423 646.681 66.6034C645.804 66.5547 642.883 68.6484 643.126 67.9667C643.321 67.4214 645.772 65.8243 646.973 65.0939L647.8 63.2436C647.265 63.2436 646.194 63.1949 646.194 63.0001C646.194 62.8054 646.518 62.6593 646.681 62.6106H648.239L648.969 60.809C648.268 60.6142 646.47 60.7278 645.658 60.809C649.797 59.1535 649.699 60.2734 649.699 59.8351C649.699 59.4846 651.809 56.8325 652.864 55.5502C648.287 54.0895 644.782 55.9885 644.149 56.0858C643.516 56.1832 642.883 60.5655 642.688 60.2734C642.532 60.0396 642.753 57.8388 642.883 56.7675L639.523 59.3482L639.864 63.2436L639.523 63.5844L638.792 60.2734L636.845 63.5844L637.965 67.285L638.111 69.4275L636.309 65.0939Z" fill="#5B8404"/>
<path d="M639.393 87.9101C639.389 87.9829 639.385 88.0547 639.381 88.1253C639.372 88.0629 639.376 87.9909 639.393 87.9101C639.655 83.0653 640.658 73.5416 642.692 72.5438L643.277 73.3229C643.293 72.5114 643.277 71.0344 643.764 70.4014C644.251 69.7684 646.539 67.8369 647.708 66.6034L646.636 70.5962L647.708 68.9406L648.828 65.7756L652.139 63.8766L650.824 66.6034C651.132 66.3599 652.022 65.4056 653.113 63.5358L657.105 62.562C656.407 63.2436 655.012 64.7239 655.012 65.1913C655.012 65.7756 657.641 62.562 658.177 62.562C658.712 62.562 664.263 63.1463 666.259 64.607L661.585 66.9929C660.562 66.7332 658.293 66.2918 657.397 66.6034L660.368 67.4799L658.712 68.5998L657.105 68.1616L656.521 68.5998L657.982 69.1354L655.791 70.5962C654.784 70.5312 652.47 70.6156 651.262 71.4726H654.719L652.139 73.3229L650.824 73.0308L650.386 73.6151L652.139 74.4915C647.955 78.2069 639.801 85.8742 639.393 87.9101Z" fill="#86AB39"/>
<path d="M646.681 85.2341C646.341 85.183 640.134 89.2187 639.746 89.4741C639.319 86.6951 640.215 83.8889 640.716 82.8332C643.197 77.0832 647.601 74.6565 648.843 74.0583C648.915 74.0068 648.986 73.9682 649.057 73.9446C649.284 73.8685 649.179 73.8965 648.843 74.0583C648.048 74.6275 647.179 76.7693 646.834 77.5296C647.478 76.7281 649.99 74.3312 651.336 73.0762L654.294 72.4632L653.615 74.0468L654.149 73.9446L655.846 72.2078L660.016 72.1056L656.088 74.813C656.008 75.1536 655.894 75.7121 656.088 75.2217C656.282 74.7313 660.275 73.2805 662.247 72.6164L665.205 73.587L663.702 74.9663H664.478L666.078 73.9957C667.048 74.4895 668.891 75.4771 668.503 75.4771C668.115 75.4771 665.82 76.601 664.72 77.1629C666.207 76.8904 669.327 76.3558 669.909 76.3966C670.491 76.4375 672.803 79.2062 673.886 80.5855C673.847 80.8716 668.665 81.7604 666.078 82.1691C665.923 81.6378 664.106 80.279 663.217 79.666L665.011 82.1691L661.811 82.5778C661.164 81.8626 659.832 80.3914 659.677 80.2279C659.522 80.0644 659.257 80.1598 659.144 80.2279L661.035 82.5778L658.368 82.8332C657.608 82.1691 656.04 80.7898 655.846 80.5855C655.663 80.3927 654.513 80.2872 654.127 80.2471C654.595 80.4387 656.339 82.0183 657.204 82.8332C654.643 83.0375 653.648 83.4973 653.47 83.7016L651.772 82.5778L651.336 82.8332L652.209 83.7016L649.639 84.1614C648.669 84.0796 646.519 84.6041 645.565 84.8765C646.05 85.0128 646.952 85.275 646.681 85.2341Z" fill="#6B9C05"/>
<path d="M639.576 89.5024C637.515 85.5583 632.983 77.5436 631.347 77.0372C631.964 77.1345 633.305 77.3975 633.733 77.6702C634.162 77.9428 632.873 76.9073 632.175 76.3555L630.373 75.7225L628.815 73.8235L630.276 73.7261L629.74 73.3365H628.328L626.283 71.1454C627.268 71.2323 629.192 71.4276 629.818 71.5794C629.105 71.3102 626.517 70.2703 625.066 69.6846L623.605 68.0291L625.066 67.5909L624.433 67.3474H622.729L621.609 65.7406H625.066C625.699 65.7406 620.83 64.6693 620.537 64.6693C620.245 64.6693 617.762 60.8713 617.567 60.8713C617.372 60.8713 623.264 60.4818 625.066 61.6504L627.062 64.6693L626.283 62.04L629.545 63.8903L630.373 67.0066H630.763L630.276 64.2798L632.905 66.2762L633.441 69.6846L634.22 71.1454L633.733 67.3474L635.632 69.6846L637.141 71.6323V73.5313H637.58L637.921 72.6549C638.765 74.6675 640.287 79.053 639.625 80.4943L640.306 79.7152C640.16 82.8315 639.81 89.1518 639.576 89.5024Z" fill="#6B9C05"/>
<path d="M639.328 89.4887C637.185 87.7845 632.784 84.376 632.316 84.376C631.849 84.376 632.641 84.1163 633.095 83.9865L626.424 81.0163L627.496 80.578L626.863 80.2372L625.207 80.578L621.847 78.6303C622.691 78.1921 624.545 77.3156 625.207 77.3156C625.869 77.3156 624.412 77.1533 623.6 77.0722L620.435 78.2408L618.147 77.3156L620.679 75.6601H619.9L617.465 77.0722L614.592 76.0497L616.832 74.0046C615.81 74.4266 613.745 75.3485 613.667 75.6601C613.589 75.9717 608.571 74.2643 606.071 73.3716C607.256 72.1867 609.82 69.8171 610.6 69.8171C611.979 70.0767 614.914 70.7325 615.615 71.2778C614.738 70.5961 612.83 69.2133 612.206 69.1354L615.031 68.2589L616.832 69.6223H617.27L616.297 68.0154H619.656C621.167 68.9635 624.306 71.0506 624.898 71.8859C624.088 70.7086 622.512 68.5101 621.982 68.0869C621.838 68.041 621.781 68.0154 621.847 68.0154C621.878 68.0154 621.924 68.0405 621.982 68.0869C622.681 68.3103 625.438 69.0165 626.084 69.6223L627.496 72.3004V70.2553C627.496 69.6223 637.867 80.0424 639.328 85.009C639.523 85.8692 639.795 87.9695 639.328 89.4887Z" fill="#5B8404"/>
<path d="M639.377 89.4888C637.315 88.4338 632.93 86.4406 631.878 86.9081V86.3238C630.58 86.6646 627.934 87.4047 627.739 87.6385C627.041 87.6709 625.597 87.7651 625.402 87.8819C625.159 88.028 625.792 86.9081 625.938 86.9081C626.054 86.9081 625.629 86.7782 625.402 86.7133L624.233 88.1254C623.113 88.2552 620.796 88.5636 620.484 88.7584C620.111 88.9915 622.193 85.6089 622.628 85.3207C622.094 85.5394 621.106 85.9778 621.068 86.129C621.02 86.3238 619.51 88.7097 619.51 89.0018L617.076 89.5375C617.287 88.7259 617.757 87.0639 617.952 86.9081C618.147 86.7523 617.741 86.8432 617.514 86.9081C617.141 87.7359 616.394 89.4498 616.394 89.6835L613.57 90.3165C613.716 89.4401 614.066 87.6677 614.3 87.5898L613.911 87.6872C613.456 88.5149 612.547 90.2386 612.547 90.5113C612.547 90.784 607.516 91.4689 605 91.7773C605.438 90.2029 606.471 86.986 607.094 86.7133C608.311 86.3887 611.028 85.72 612.158 85.6421C610.94 85.5122 608.428 85.2915 608.116 85.4473L609.723 83.4509L611.914 83.6944L612.158 83.4509L610.6 82.5745L612.986 80.8703C614.823 80.9014 618.529 81.0251 619.241 81.2758C617.963 80.7146 615.388 79.6634 614.738 79.7016C615.923 79.3446 618.371 78.6304 618.683 78.6304C619.38 78.9875 620.815 79.7016 620.971 79.7016C621.127 79.7016 621.296 79.5718 621.361 79.5069L620.241 78.3383H622.091C626.928 80.4158 636.747 84.7851 637.332 85.6421C638.062 86.7133 639.377 88.4662 639.377 89.4888Z" fill="#6B9C05"/>
<path d="M646.632 91.4373C645.035 90.7751 641.13 89.7656 639.377 89.3436L639.62 88.0776C644.256 84.6496 651.29 83.8576 654.228 83.89C653.541 84.0045 651.647 85.2802 650.73 85.9427C651.259 85.629 654.5 84.7797 656.127 84.377C657.036 84.6042 658.815 85.0587 658.659 85.0587C658.503 85.0587 657.717 85.8053 657.344 86.1786C657.442 86.2273 657.675 86.3247 657.831 86.3247C657.987 86.3247 659.324 85.7728 659.974 85.4969L663.285 87.2985C662.622 87.1427 660.055 87.753 658.854 88.0776C659.555 88.0386 663.106 88.5158 664.794 88.7593L666.693 90.9991L665.037 91.4373L665.281 91.7782L667.229 91.9729L668.251 94.3589C666.849 93.7356 665.265 93.7096 664.648 93.7746C665.544 93.9693 667.78 95.2516 668.787 95.8683C669.371 97.7381 668.803 100.153 668.446 101.127C668.368 100.854 664.518 98.9359 662.603 98.0108C662.681 97.6991 662.278 95.7709 662.067 94.8458C662.067 95.1185 661.905 96.8097 661.824 97.6212L659.535 96.6961C659.652 96.4234 659.324 94.6348 659.146 93.7746H658.854L659 96.3552L657.052 95.5275C656.809 94.6672 656.322 92.8981 656.322 92.7033C656.322 92.5086 655.51 91.8756 655.104 91.5834C655.26 91.7003 655.981 94.0018 656.322 95.1379C655.971 95.0211 653.968 94.2777 653.011 93.9206L652.134 92.3625C652.069 92.3463 651.92 92.3235 651.842 92.3625C651.764 92.4014 652.004 93.1578 652.134 93.5311L649.797 92.7033C649.096 92.0022 647.167 91.0153 646.291 90.6096L646.632 91.4373Z" fill="#5B8404"/>
<path d="M639.892 89.1827C638.513 89.9455 635.559 91.6757 634.78 92.4937C634.674 92.3119 634.528 91.8926 634.731 91.5841C633.578 93.098 631.299 96.0407 631.031 96.1944C630.758 96.3502 630.657 95.5451 630.641 95.1231C630.349 95.3017 629.891 95.9412 630.398 97.0708C629.716 97.7363 628.313 99.1743 628.158 99.6028C627.849 98.7101 627.271 96.7787 627.427 96.1944C627.086 96.7137 626.609 98.2784 627.427 100.382L626.259 102.183C625.882 101.528 625.197 100.266 625.06 99.7758C625.054 100.288 625.057 101.677 625.82 102.768L624.116 104.813C623.707 104.07 622.915 102.59 622.813 102.24C622.864 102.692 623.093 105.214 623.435 105.641L618.565 110.851C617.916 109.309 616.676 106.167 616.91 105.933C617.182 105.66 618.936 103.061 619.843 102.512C618.838 102.987 617.093 103.923 616.91 104.472V101.891C617.445 101.583 618.595 100.908 618.906 100.674H616.91L617.64 98.0447C618.964 97.0082 621.728 94.9253 622.379 94.7416C621.166 95.0384 618.688 95.7311 618.224 96.1944C618.874 95.1718 620.211 93.1267 620.367 93.1267C620.523 93.1267 622.055 92.7047 622.802 92.4937V92.1042H621.146L623.435 90.0104C624.701 89.6209 627.612 88.8516 629.132 88.8905C627.752 88.8094 624.934 88.6568 624.701 88.6958C626.973 87.4298 632.774 85.297 637.799 86.8941C638.367 87.2837 639.581 88.2867 639.892 89.1827Z" fill="#5B8404"/>
<mask id="mask1" mask-type="alpha" maskUnits="userSpaceOnUse" x="675" y="132" width="7" height="59">
<path d="M677.903 156.808C678.201 163.986 676.679 182.145 675.687 189.587L679.59 190.017C680.252 189.065 680.99 173.567 681.277 165.937C681.436 164.138 681.343 155.452 680.648 148.87C679.954 142.288 677.936 135.595 676.944 132.729L675.224 133.159C677.42 136.572 677.605 149.631 677.903 156.808Z" fill="#92742E"/>
</mask>
<g mask="url(#mask1)">
<path d="M677.903 156.808C678.201 163.986 676.679 182.145 675.687 189.587L679.59 190.017C680.252 189.065 680.99 173.567 681.277 165.937C681.436 164.138 681.343 155.452 680.648 148.87C679.954 142.288 677.936 135.595 676.944 132.729L675.224 133.159C677.42 136.572 677.605 149.631 677.903 156.808Z" fill="#92742E"/>
<path fill-rule="evenodd" clip-rule="evenodd" d="M681.357 184.659C681.175 186.369 679.728 187.702 677.969 187.702C676.211 187.702 674.763 186.369 674.582 184.659C674.569 184.778 674.562 184.9 674.562 185.023C674.562 186.904 676.088 188.43 677.969 188.43C679.851 188.43 681.376 186.904 681.376 185.023C681.376 184.9 681.37 184.778 681.357 184.659Z" fill="#715219"/>
<path fill-rule="evenodd" clip-rule="evenodd" d="M682.018 179.102C681.837 180.812 680.389 182.145 678.631 182.145C676.872 182.145 675.425 180.812 675.243 179.102C675.23 179.221 675.224 179.343 675.224 179.466C675.224 181.347 676.749 182.873 678.631 182.873C680.512 182.873 682.038 181.347 682.038 179.466C682.038 179.343 682.031 179.221 682.018 179.102Z" fill="#715219"/>
<path fill-rule="evenodd" clip-rule="evenodd" d="M683.143 173.611C682.961 175.322 681.514 176.654 679.755 176.654C677.997 176.654 676.549 175.322 676.368 173.611C676.355 173.731 676.349 173.852 676.349 173.975C676.349 175.857 677.874 177.382 679.755 177.382C681.637 177.382 683.162 175.857 683.162 173.975C683.162 173.852 683.156 173.731 683.143 173.611Z" fill="#715219"/>
<path fill-rule="evenodd" clip-rule="evenodd" d="M683.143 167.128C682.962 168.839 681.514 170.171 679.755 170.171C677.997 170.171 676.549 168.839 676.368 167.128C676.355 167.248 676.349 167.369 676.349 167.492C676.349 169.374 677.874 170.899 679.755 170.899C681.637 170.899 683.162 169.374 683.162 167.492C683.162 167.369 683.156 167.248 683.143 167.128Z" fill="#715219"/>
<path fill-rule="evenodd" clip-rule="evenodd" d="M683.143 161.373C682.961 163.083 681.514 164.416 679.755 164.416C677.997 164.416 676.549 163.083 676.368 161.373C676.355 161.492 676.349 161.614 676.349 161.737C676.349 163.618 677.874 165.144 679.755 165.144C681.637 165.144 683.162 163.618 683.162 161.737C683.162 161.614 683.156 161.492 683.143 161.373Z" fill="#715219"/>
<path fill-rule="evenodd" clip-rule="evenodd" d="M683.143 156.081C682.961 157.791 681.514 159.124 679.755 159.124C677.997 159.124 676.549 157.791 676.368 156.081C676.355 156.2 676.349 156.322 676.349 156.444C676.349 158.326 677.874 159.851 679.755 159.851C681.637 159.851 683.162 158.326 683.162 156.444C683.162 156.322 683.156 156.2 683.143 156.081Z" fill="#715219"/>
<path fill-rule="evenodd" clip-rule="evenodd" d="M683.275 150.788C683.094 152.499 681.646 153.831 679.888 153.831C678.129 153.831 676.682 152.499 676.5 150.788C676.487 150.908 676.481 151.029 676.481 151.152C676.481 153.034 678.006 154.559 679.888 154.559C681.769 154.559 683.294 153.034 683.294 151.152C683.294 151.029 683.288 150.908 683.275 150.788Z" fill="#715219"/>
<path fill-rule="evenodd" clip-rule="evenodd" d="M683.275 145.496C683.094 147.207 681.646 148.539 679.888 148.539C678.129 148.539 676.682 147.207 676.5 145.496C676.487 145.616 676.481 145.737 676.481 145.86C676.481 147.742 678.006 149.267 679.888 149.267C681.769 149.267 683.294 147.742 683.294 145.86C683.294 145.737 683.288 145.616 683.275 145.496Z" fill="#715219"/>
<path fill-rule="evenodd" clip-rule="evenodd" d="M682.018 140.469C681.837 142.179 680.389 143.512 678.631 143.512C676.872 143.512 675.425 142.179 675.243 140.469C675.23 140.588 675.224 140.709 675.224 140.832C675.224 142.714 676.749 144.239 678.631 144.239C680.512 144.239 682.038 142.714 682.038 140.832C682.038 140.709 682.031 140.588 682.018 140.469Z" fill="#715219"/>
<path fill-rule="evenodd" clip-rule="evenodd" d="M679.769 135.772C679.588 137.482 678.14 138.815 676.381 138.815C674.623 138.815 673.175 137.482 672.994 135.772C672.981 135.891 672.975 136.012 672.975 136.135C672.975 138.017 674.5 139.542 676.381 139.542C678.263 139.542 679.788 138.017 679.788 136.135C679.788 136.012 679.782 135.891 679.769 135.772Z" fill="#715219"/>
<path fill-rule="evenodd" clip-rule="evenodd" d="M679.506 132.067C679.339 133.777 678.004 135.11 676.382 135.11C674.759 135.11 673.424 133.777 673.257 132.067C673.245 132.186 673.239 132.308 673.239 132.431C673.239 134.312 674.646 135.838 676.382 135.838C678.117 135.838 679.524 134.312 679.524 132.431C679.524 132.308 679.518 132.186 679.506 132.067Z" fill="#715219"/>
</g>
<path d="M678.568 116.857C679.044 117.201 679.737 121.388 680.024 123.439L676.683 130.65C674.764 126.405 671.047 117.909 671.523 117.882C672.118 117.849 674.103 119.271 673.937 118.808C673.805 118.438 672.14 117.353 671.324 116.857L670.762 115.6C671.126 115.6 671.854 115.567 671.854 115.434C671.854 115.302 671.633 115.203 671.523 115.17H670.464L669.968 113.946C670.445 113.814 671.666 113.891 672.217 113.946C669.406 112.821 669.472 113.582 669.472 113.285C669.472 113.046 668.039 111.245 667.322 110.374C670.431 109.381 672.813 110.671 673.243 110.738C673.673 110.804 674.103 113.781 674.235 113.582C674.341 113.423 674.191 111.928 674.103 111.201L676.385 112.954L676.154 115.6L676.385 115.831L676.881 113.582L678.204 115.831L677.444 118.345L677.344 119.801L678.568 116.857Z" fill="#5B8404"/>
<path d="M676.473 132.356C676.476 132.405 676.479 132.454 676.481 132.502C676.487 132.46 676.484 132.411 676.473 132.356C676.295 129.065 675.614 122.595 674.232 121.918L673.835 122.447C673.824 121.895 673.835 120.892 673.504 120.462C673.173 120.032 671.619 118.72 670.825 117.882L671.553 120.594L670.825 119.47L670.064 117.32L667.815 116.03L668.708 117.882C668.499 117.717 667.894 117.069 667.153 115.798L664.441 115.137C664.915 115.6 665.864 116.605 665.864 116.923C665.864 117.32 664.077 115.137 663.714 115.137C663.35 115.137 659.579 115.534 658.223 116.526L661.398 118.147C662.093 117.97 663.634 117.671 664.243 117.882L662.225 118.478L663.35 119.238L664.441 118.941L664.838 119.238L663.846 119.602L665.334 120.594C666.018 120.55 667.59 120.608 668.41 121.19H666.062L667.815 122.447L668.708 122.248L669.006 122.645L667.815 123.241C670.657 125.764 676.196 130.973 676.473 132.356Z" fill="#86AB39"/>
<path d="M671.548 130.571C671.779 130.536 676.011 133.287 676.276 133.461C676.567 131.567 675.956 129.653 675.614 128.934C673.923 125.013 670.92 123.359 670.073 122.951C670.024 122.916 669.976 122.89 669.928 122.874C669.773 122.822 669.844 122.841 670.073 122.951C670.615 123.339 671.208 124.8 671.443 125.318C671.004 124.771 669.291 123.137 668.374 122.282L666.357 121.864L666.82 122.943L666.456 122.874L665.299 121.69L662.456 121.62L665.134 123.466C665.189 123.698 665.266 124.079 665.134 123.744C665.002 123.41 662.279 122.421 660.935 121.968L658.918 122.63L659.943 123.57H659.414L658.323 122.908C657.662 123.245 656.405 123.919 656.67 123.919C656.934 123.919 658.499 124.685 659.249 125.068C658.235 124.882 656.108 124.518 655.711 124.545C655.314 124.573 653.738 126.461 653 127.401C653.026 127.596 656.56 128.202 658.323 128.481C658.429 128.119 659.668 127.192 660.274 126.774L659.05 128.481L661.232 128.76C661.673 128.272 662.581 127.269 662.687 127.157C662.793 127.046 662.974 127.111 663.051 127.157L661.761 128.76L663.58 128.934C664.098 128.481 665.167 127.541 665.299 127.401C665.424 127.27 666.208 127.198 666.471 127.171C666.152 127.301 664.963 128.378 664.373 128.934C666.119 129.073 666.798 129.386 666.919 129.526L668.076 128.76L668.374 128.934L667.779 129.526L669.531 129.839C670.192 129.783 671.658 130.141 672.308 130.327C671.978 130.42 671.363 130.598 671.548 130.571Z" fill="#6B9C05"/>
<path d="M676.349 133.437C677.749 130.758 680.827 125.314 681.939 124.97C681.52 125.036 680.609 125.215 680.318 125.4C680.027 125.585 680.902 124.882 681.376 124.507L682.6 124.077L683.659 122.787L682.666 122.721L683.03 122.456H683.989L685.379 120.968C684.71 121.027 683.403 121.159 682.978 121.262C683.462 121.08 685.22 120.373 686.206 119.975L687.198 118.851L686.206 118.553L686.636 118.388H687.793L688.554 117.296H686.206C685.776 117.296 689.083 116.568 689.282 116.568C689.48 116.568 691.167 113.988 691.299 113.988C691.432 113.988 687.429 113.724 686.206 114.518L684.849 116.568L685.379 114.782L683.163 116.039L682.6 118.156H682.336L682.666 116.304L680.88 117.66L680.516 119.975L679.987 120.968L680.318 118.388L679.028 119.975L678.003 121.298V122.588H677.705L677.473 121.993C676.9 123.36 675.866 126.339 676.316 127.318L675.853 126.789C675.952 128.906 676.19 133.199 676.349 133.437Z" fill="#6B9C05"/>
<path d="M676.517 133.428C677.973 132.271 680.963 129.955 681.28 129.955C681.598 129.955 681.06 129.779 680.751 129.691L685.283 127.673L684.555 127.375L684.985 127.144L686.11 127.375L688.392 126.052C687.818 125.754 686.559 125.159 686.11 125.159C685.66 125.159 686.65 125.049 687.201 124.994L689.351 125.788L690.906 125.159L689.186 124.034H689.715L691.369 124.994L693.32 124.299L691.799 122.91C692.493 123.197 693.896 123.823 693.949 124.034C694.002 124.246 697.411 123.086 699.109 122.48C698.304 121.675 696.562 120.065 696.033 120.065C695.095 120.242 693.102 120.687 692.626 121.058C693.221 120.594 694.518 119.655 694.941 119.602L693.023 119.007L691.799 119.933H691.501L692.163 118.841H689.88C688.854 119.485 686.722 120.903 686.32 121.471C686.87 120.671 687.94 119.177 688.301 118.89C688.398 118.859 688.437 118.841 688.392 118.841C688.371 118.841 688.34 118.858 688.301 118.89C687.825 119.042 685.953 119.521 685.514 119.933L684.555 121.752V120.363C684.555 119.933 677.51 127.011 676.517 130.385C676.385 130.97 676.2 132.396 676.517 133.428Z" fill="#5B8404"/>
<path d="M676.484 133.428C677.885 132.712 680.864 131.358 681.578 131.675V131.278C682.46 131.51 684.257 132.013 684.39 132.171C684.864 132.193 685.845 132.257 685.977 132.337C686.143 132.436 685.713 131.675 685.613 131.675C685.534 131.675 685.823 131.587 685.977 131.543L686.771 132.502C687.532 132.59 689.106 132.8 689.318 132.932C689.571 133.09 688.157 130.793 687.862 130.597C688.224 130.745 688.895 131.043 688.921 131.146C688.954 131.278 689.98 132.899 689.98 133.097L691.633 133.461C691.49 132.91 691.17 131.781 691.038 131.675C690.906 131.569 691.181 131.631 691.336 131.675C691.589 132.237 692.097 133.402 692.097 133.56L694.015 133.99C693.916 133.395 693.678 132.191 693.519 132.138L693.783 132.204C694.092 132.767 694.71 133.938 694.71 134.123C694.71 134.308 698.127 134.773 699.836 134.983C699.539 133.913 698.838 131.728 698.414 131.543C697.587 131.322 695.742 130.868 694.974 130.815C695.801 130.727 697.508 130.577 697.72 130.683L696.628 129.327L695.14 129.492L694.974 129.327L696.033 128.731L694.412 127.574C693.164 127.595 690.646 127.679 690.162 127.849C691.031 127.468 692.78 126.754 693.221 126.78C692.416 126.537 690.754 126.052 690.542 126.052C690.068 126.295 689.093 126.78 688.987 126.78C688.881 126.78 688.767 126.692 688.723 126.647L689.483 125.854H688.227C684.941 127.265 678.27 130.233 677.874 130.815C677.377 131.543 676.484 132.734 676.484 133.428Z" fill="#6B9C05"/>
<path d="M671.556 134.752C672.641 134.302 675.293 133.616 676.484 133.33L676.319 132.47C673.17 130.141 668.392 129.603 666.396 129.625C666.862 129.703 668.149 130.569 668.772 131.019C668.413 130.806 666.211 130.229 665.106 129.956C664.488 130.11 663.28 130.419 663.386 130.419C663.492 130.419 664.025 130.926 664.279 131.18C664.213 131.213 664.054 131.279 663.948 131.279C663.842 131.279 662.934 130.904 662.493 130.717L660.244 131.94C660.693 131.835 662.438 132.249 663.254 132.47C662.777 132.443 660.365 132.767 659.218 132.933L657.928 134.454L659.053 134.752L658.888 134.983L657.564 135.116L656.87 136.736C657.822 136.313 658.899 136.295 659.317 136.34C658.709 136.472 657.19 137.343 656.506 137.762C656.109 139.032 656.495 140.673 656.738 141.334C656.79 141.149 659.406 139.846 660.707 139.217C660.654 139.006 660.927 137.696 661.071 137.067C661.071 137.252 661.181 138.401 661.236 138.953L662.791 138.324C662.711 138.139 662.934 136.924 663.055 136.34H663.254L663.154 138.093L664.477 137.53C664.643 136.946 664.974 135.744 664.974 135.612C664.974 135.48 665.525 135.05 665.801 134.851C665.695 134.931 665.205 136.494 664.974 137.266C665.212 137.186 666.572 136.681 667.223 136.439L667.818 135.38C667.862 135.369 667.964 135.354 668.017 135.38C668.07 135.407 667.906 135.921 667.818 136.174L669.406 135.612C669.882 135.136 671.192 134.465 671.787 134.19L671.556 134.752Z" fill="#5B8404"/>
<path d="M676.134 133.22C677.071 133.738 679.078 134.914 679.607 135.469C679.679 135.346 679.778 135.061 679.64 134.852C680.423 135.88 681.971 137.879 682.154 137.983C682.339 138.089 682.407 137.542 682.418 137.256C682.617 137.377 682.928 137.811 682.584 138.579C683.047 139.031 684 140.008 684.105 140.299C684.315 139.692 684.707 138.38 684.602 137.983C684.833 138.336 685.157 139.399 684.602 140.828L685.395 142.052C685.651 141.607 686.117 140.749 686.209 140.416C686.214 140.764 686.212 141.708 685.693 142.449L686.851 143.838C687.129 143.333 687.667 142.328 687.736 142.09C687.701 142.397 687.546 144.11 687.314 144.4L690.621 147.939C691.063 146.892 691.905 144.757 691.746 144.599C691.561 144.414 690.37 142.648 689.754 142.275C690.436 142.597 691.622 143.233 691.746 143.606V141.853C691.382 141.644 690.602 141.185 690.39 141.026H691.746L691.25 139.24C690.351 138.536 688.473 137.121 688.031 136.996C688.855 137.198 690.538 137.669 690.853 137.983C690.412 137.289 689.504 135.899 689.398 135.899C689.292 135.899 688.251 135.613 687.744 135.469V135.205H688.868L687.314 133.783C686.454 133.518 684.476 132.995 683.444 133.022C684.381 132.967 686.295 132.863 686.454 132.89C684.91 132.03 680.97 130.581 677.556 131.666C677.17 131.93 676.346 132.612 676.134 133.22Z" fill="#5B8404"/>
<mask id="mask2" mask-type="alpha" maskUnits="userSpaceOnUse" x="595" y="135" width="8" height="66">
<path d="M599.859 162.785C599.522 170.912 601.244 191.475 602.368 199.902L597.948 200.389C597.199 199.311 596.363 181.762 596.038 173.122C595.858 171.085 595.963 161.249 596.75 153.796C597.536 146.342 599.821 138.764 600.945 135.518L602.892 136.005C600.405 139.87 600.196 154.657 599.859 162.785Z" fill="#92742E"/>
</mask>
<g mask="url(#mask2)">
<path d="M599.859 162.785C599.522 170.912 601.244 191.475 602.368 199.902L597.948 200.389C597.199 199.311 596.363 181.762 596.038 173.122C595.858 171.085 595.963 161.249 596.75 153.796C597.536 146.342 599.821 138.764 600.945 135.518L602.892 136.005C600.405 139.87 600.196 154.657 599.859 162.785Z" fill="#92742E"/>
<path fill-rule="evenodd" clip-rule="evenodd" d="M595.948 194.322C596.153 196.259 597.792 197.767 599.784 197.767C601.775 197.767 603.414 196.259 603.62 194.322C603.634 194.457 603.641 194.594 603.641 194.734C603.641 196.864 601.914 198.591 599.784 198.591C597.653 198.591 595.926 196.864 595.926 194.734C595.926 194.594 595.933 194.457 595.948 194.322Z" fill="#715219"/>
<path fill-rule="evenodd" clip-rule="evenodd" d="M595.199 188.029C595.404 189.966 597.043 191.475 599.035 191.475C601.026 191.475 602.665 189.966 602.871 188.029C602.885 188.165 602.892 188.302 602.892 188.441C602.892 190.572 601.165 192.299 599.035 192.299C596.904 192.299 595.177 190.572 595.177 188.441C595.177 188.302 595.184 188.165 595.199 188.029Z" fill="#715219"/>
<path fill-rule="evenodd" clip-rule="evenodd" d="M593.925 181.812C594.131 183.749 595.77 185.258 597.761 185.258C599.753 185.258 601.392 183.749 601.597 181.812C601.612 181.947 601.619 182.085 601.619 182.224C601.619 184.354 599.892 186.082 597.761 186.082C595.631 186.082 593.903 184.354 593.903 182.224C593.903 182.085 593.911 181.947 593.925 181.812Z" fill="#715219"/>
<path fill-rule="evenodd" clip-rule="evenodd" d="M593.925 174.471C594.131 176.408 595.77 177.917 597.761 177.917C599.753 177.917 601.392 176.408 601.597 174.471C601.612 174.606 601.619 174.744 601.619 174.883C601.619 177.013 599.892 178.741 597.761 178.741C595.631 178.741 593.903 177.013 593.903 174.883C593.903 174.744 593.911 174.606 593.925 174.471Z" fill="#715219"/>
<path fill-rule="evenodd" clip-rule="evenodd" d="M593.925 167.954C594.131 169.891 595.77 171.399 597.761 171.399C599.753 171.399 601.392 169.891 601.597 167.954C601.612 168.089 601.619 168.226 601.619 168.366C601.619 170.496 599.892 172.223 597.761 172.223C595.631 172.223 593.903 170.496 593.903 168.366C593.903 168.226 593.911 168.089 593.925 167.954Z" fill="#715219"/>
<path fill-rule="evenodd" clip-rule="evenodd" d="M593.925 161.961C594.131 163.898 595.77 165.407 597.761 165.407C599.753 165.407 601.392 163.898 601.597 161.961C601.612 162.096 601.619 162.234 601.619 162.373C601.619 164.503 599.892 166.231 597.761 166.231C595.631 166.231 593.903 164.503 593.903 162.373C593.903 162.234 593.911 162.096 593.925 161.961Z" fill="#715219"/>
<path fill-rule="evenodd" clip-rule="evenodd" d="M593.775 155.968C593.981 157.905 595.62 159.414 597.611 159.414C599.603 159.414 601.242 157.905 601.447 155.968C601.462 156.104 601.469 156.241 601.469 156.38C601.469 158.511 599.742 160.238 597.611 160.238C595.481 160.238 593.754 158.511 593.754 156.38C593.754 156.241 593.761 156.104 593.775 155.968Z" fill="#715219"/>
<path fill-rule="evenodd" clip-rule="evenodd" d="M593.775 149.975C593.981 151.912 595.62 153.421 597.611 153.421C599.603 153.421 601.242 151.912 601.447 149.975C601.462 150.111 601.469 150.248 601.469 150.387C601.469 152.518 599.742 154.245 597.611 154.245C595.481 154.245 593.754 152.518 593.754 150.387C593.754 150.248 593.761 150.111 593.775 149.975Z" fill="#715219"/>
<path fill-rule="evenodd" clip-rule="evenodd" d="M595.199 144.282C595.404 146.219 597.043 147.728 599.035 147.728C601.026 147.728 602.665 146.219 602.871 144.282C602.885 144.418 602.892 144.555 602.892 144.694C602.892 146.825 601.165 148.552 599.035 148.552C596.904 148.552 595.177 146.825 595.177 144.694C595.177 144.555 595.184 144.418 595.199 144.282Z" fill="#715219"/>
<path fill-rule="evenodd" clip-rule="evenodd" d="M597.745 138.964C597.951 140.901 599.59 142.41 601.582 142.41C603.573 142.41 605.212 140.901 605.418 138.964C605.432 139.099 605.439 139.237 605.439 139.376C605.439 141.506 603.712 143.234 601.582 143.234C599.451 143.234 597.724 141.506 597.724 139.376C597.724 139.237 597.731 139.099 597.745 138.964Z" fill="#715219"/>
<path fill-rule="evenodd" clip-rule="evenodd" d="M598.043 134.769C598.233 136.706 599.745 138.215 601.582 138.215C603.418 138.215 604.93 136.706 605.12 134.769C605.133 134.904 605.14 135.042 605.14 135.181C605.14 137.311 603.547 139.039 601.582 139.039C599.616 139.039 598.023 137.311 598.023 135.181C598.023 135.042 598.03 134.904 598.043 134.769Z" fill="#715219"/>
</g>
<path d="M604.952 117.764C605.492 118.154 606.276 122.896 606.6 125.218L602.818 133.383C600.645 128.576 596.435 118.955 596.975 118.925C597.649 118.888 599.896 120.499 599.709 119.974C599.559 119.555 597.674 118.326 596.75 117.764L596.113 116.341C596.525 116.341 597.349 116.304 597.349 116.154C597.349 116.004 597.099 115.892 596.975 115.854H595.776L595.214 114.468C595.754 114.319 597.137 114.406 597.761 114.468C594.578 113.195 594.652 114.056 594.652 113.719C594.652 113.45 593.029 111.41 592.218 110.423C595.739 109.3 598.435 110.76 598.922 110.835C599.409 110.91 599.896 114.281 600.046 114.056C600.166 113.877 599.996 112.184 599.896 111.36L602.48 113.345L602.218 116.341L602.48 116.603L603.042 114.056L604.54 116.603L603.679 119.45L603.567 121.098L604.952 117.764Z" fill="#5B8404"/>
<path d="M602.581 135.315C602.584 135.371 602.587 135.426 602.589 135.48C602.596 135.432 602.593 135.377 602.581 135.315C602.379 131.588 601.607 124.262 600.042 123.495L599.593 124.094C599.58 123.47 599.593 122.334 599.218 121.847C598.844 121.36 597.083 119.874 596.185 118.925L597.009 121.997L596.185 120.723L595.323 118.289L592.776 116.828L593.787 118.925C593.55 118.738 592.866 118.004 592.027 116.566L588.956 115.817C589.493 116.341 590.566 117.48 590.566 117.839C590.566 118.289 588.544 115.817 588.132 115.817C587.72 115.817 583.45 116.266 581.914 117.39L585.51 119.225C586.297 119.025 588.042 118.686 588.731 118.925L586.446 119.6L587.72 120.461L588.956 120.124L589.405 120.461L588.282 120.873L589.967 121.997C590.741 121.947 592.522 122.012 593.45 122.671H590.791L592.776 124.094L593.787 123.869L594.125 124.319L592.776 124.993C595.994 127.851 602.266 133.749 602.581 135.315Z" fill="#86AB39"/>
<path d="M597.003 133.293C597.265 133.254 602.057 136.369 602.357 136.567C602.686 134.421 601.995 132.255 601.608 131.44C599.692 127.001 596.292 125.127 595.333 124.665C595.278 124.626 595.223 124.596 595.168 124.578C594.993 124.519 595.074 124.54 595.333 124.665C595.947 125.105 596.618 126.758 596.884 127.345C596.387 126.727 594.448 124.876 593.409 123.907L591.125 123.434L591.649 124.656L591.237 124.578L589.927 123.237L586.707 123.158L589.74 125.248C589.802 125.511 589.89 125.942 589.74 125.564C589.59 125.185 586.508 124.065 584.985 123.552L582.701 124.302L583.862 125.366H583.263L582.028 124.617C581.279 124.998 579.856 125.761 580.156 125.761C580.455 125.761 582.227 126.628 583.076 127.062C581.928 126.852 579.519 126.439 579.07 126.471C578.621 126.502 576.836 128.64 576 129.704C576.03 129.925 580.031 130.612 582.028 130.927C582.147 130.517 583.55 129.468 584.236 128.995L582.851 130.927L585.322 131.243C585.821 130.69 586.85 129.555 586.969 129.428C587.089 129.302 587.294 129.376 587.381 129.428L585.921 131.243L587.98 131.44C588.567 130.927 589.777 129.862 589.927 129.704C590.068 129.556 590.956 129.474 591.254 129.443C590.893 129.591 589.546 130.811 588.879 131.44C590.856 131.597 591.624 131.952 591.762 132.11L593.072 131.243L593.409 131.44L592.735 132.11L594.719 132.465C595.468 132.402 597.128 132.807 597.864 133.017C597.49 133.122 596.793 133.325 597.003 133.293Z" fill="#6B9C05"/>
<path d="M602.439 136.54C604.025 133.506 607.511 127.341 608.769 126.951C608.295 127.026 607.264 127.228 606.934 127.438C606.604 127.648 607.596 126.851 608.133 126.427L609.518 125.94L610.717 124.479L609.593 124.404L610.005 124.105H611.091L612.665 122.419C611.907 122.486 610.427 122.636 609.946 122.753C610.494 122.546 612.485 121.746 613.601 121.296L614.725 120.022L613.601 119.685L614.088 119.498H615.399L616.26 118.262H613.601C613.114 118.262 616.859 117.438 617.084 117.438C617.309 117.438 619.219 114.516 619.369 114.516C619.519 114.516 614.987 114.217 613.601 115.116L612.065 117.438L612.665 115.415L610.155 116.839L609.518 119.236H609.219L609.593 117.138L607.571 118.674L607.159 121.296L606.559 122.419L606.934 119.498L605.473 121.296L604.312 122.794V124.255H603.975L603.713 123.58C603.064 125.128 601.893 128.502 602.402 129.611L601.878 129.011C601.99 131.408 602.26 136.27 602.439 136.54Z" fill="#6B9C05"/>
<path d="M602.63 136.529C604.278 135.218 607.664 132.596 608.024 132.596C608.383 132.596 607.774 132.397 607.424 132.297L612.556 130.012L611.732 129.675L612.219 129.413L613.492 129.675L616.076 128.177C615.427 127.84 614.002 127.165 613.492 127.165C612.983 127.165 614.104 127.041 614.728 126.978L617.163 127.877L618.923 127.165L616.975 125.892H617.575L619.447 126.978L621.657 126.192L619.934 124.619C620.721 124.943 622.309 125.652 622.369 125.892C622.429 126.132 626.289 124.818 628.212 124.132C627.3 123.22 625.328 121.397 624.729 121.397C623.667 121.597 621.41 122.102 620.871 122.521C621.545 121.997 623.013 120.933 623.493 120.873L621.32 120.199L619.934 121.248H619.597L620.346 120.012H617.762C616.6 120.741 614.185 122.346 613.73 122.989C614.353 122.083 615.565 120.392 615.973 120.067C616.084 120.031 616.128 120.012 616.076 120.012C616.053 120.012 616.018 120.031 615.973 120.067C615.435 120.238 613.315 120.782 612.818 121.248L611.732 123.308V121.735C611.732 121.248 603.754 129.263 602.63 133.083C602.48 133.745 602.271 135.361 602.63 136.529Z" fill="#5B8404"/>
<path d="M602.593 136.529C604.178 135.718 607.552 134.184 608.361 134.544V134.095C609.36 134.357 611.395 134.926 611.544 135.106C612.081 135.131 613.192 135.203 613.342 135.293C613.53 135.405 613.043 134.544 612.93 134.544C612.84 134.544 613.168 134.444 613.342 134.394L614.241 135.48C615.103 135.58 616.885 135.817 617.125 135.967C617.412 136.147 615.81 133.545 615.476 133.323C615.887 133.491 616.647 133.828 616.676 133.945C616.713 134.095 617.874 135.93 617.874 136.155L619.747 136.567C619.585 135.942 619.223 134.664 619.073 134.544C618.923 134.424 619.235 134.494 619.41 134.544C619.697 135.181 620.271 136.499 620.271 136.679L622.444 137.166C622.331 136.492 622.062 135.128 621.882 135.068L622.182 135.143C622.531 135.78 623.23 137.106 623.23 137.316C623.23 137.525 627.101 138.052 629.036 138.289C628.699 137.078 627.905 134.604 627.425 134.394C626.489 134.145 624.399 133.63 623.53 133.57C624.466 133.47 626.399 133.301 626.639 133.42L625.403 131.885L623.717 132.072L623.53 131.885L624.728 131.211L622.893 129.9C621.48 129.924 618.629 130.019 618.081 130.212C619.064 129.78 621.045 128.971 621.545 129.001C620.633 128.726 618.751 128.177 618.511 128.177C617.974 128.451 616.871 129.001 616.751 129.001C616.631 129.001 616.501 128.901 616.451 128.851L617.312 127.952H615.889C612.169 129.55 604.615 132.911 604.166 133.57C603.604 134.394 602.593 135.743 602.593 136.529Z" fill="#6B9C05"/>
<path d="M597.012 138.028C598.241 137.519 601.245 136.742 602.593 136.418L602.406 135.444C598.84 132.807 593.429 132.198 591.169 132.223C591.697 132.311 593.155 133.292 593.86 133.801C593.453 133.56 590.96 132.907 589.709 132.597C589.009 132.772 587.641 133.122 587.761 133.122C587.881 133.122 588.485 133.696 588.772 133.983C588.697 134.02 588.517 134.095 588.398 134.095C588.278 134.095 587.249 133.671 586.75 133.459L584.203 134.844C584.712 134.725 586.687 135.194 587.611 135.444C587.072 135.414 584.34 135.781 583.042 135.968L581.581 137.691L582.854 138.028L582.667 138.29L581.169 138.44L580.382 140.275C581.461 139.796 582.68 139.776 583.154 139.826C582.465 139.976 580.744 140.962 579.97 141.436C579.521 142.875 579.958 144.732 580.232 145.482C580.292 145.272 583.254 143.796 584.727 143.084C584.667 142.845 584.977 141.362 585.139 140.65C585.139 140.86 585.264 142.161 585.326 142.785L587.087 142.073C586.997 141.863 587.249 140.488 587.386 139.826H587.611L587.499 141.811L588.997 141.174C589.184 140.513 589.559 139.152 589.559 139.002C589.559 138.852 590.183 138.365 590.495 138.14C590.375 138.23 589.821 140.001 589.559 140.875C589.828 140.785 591.369 140.213 592.106 139.938L592.78 138.74C592.83 138.727 592.945 138.71 593.005 138.74C593.064 138.77 592.88 139.351 592.78 139.639L594.578 139.002C595.117 138.463 596.6 137.703 597.274 137.391L597.012 138.028Z" fill="#5B8404"/>
<path d="M602.196 136.294C603.257 136.881 605.529 138.211 606.129 138.841C606.21 138.701 606.322 138.378 606.166 138.141C607.053 139.305 608.806 141.569 609.013 141.687C609.223 141.807 609.3 141.188 609.312 140.863C609.537 141.001 609.889 141.492 609.5 142.361C610.024 142.873 611.103 143.979 611.223 144.309C611.46 143.622 611.904 142.137 611.784 141.687C612.047 142.087 612.414 143.29 611.784 144.908L612.683 146.294C612.973 145.79 613.5 144.819 613.605 144.442C613.61 144.836 613.608 145.905 613.02 146.744L614.331 148.317C614.646 147.745 615.256 146.607 615.334 146.338C615.295 146.686 615.118 148.625 614.856 148.953L618.601 152.961C619.101 151.775 620.054 149.358 619.875 149.178C619.665 148.969 618.316 146.969 617.619 146.547C618.391 146.912 619.734 147.632 619.875 148.054V146.069C619.463 145.832 618.579 145.313 618.339 145.133H619.875L619.313 143.11C618.295 142.313 616.168 140.711 615.668 140.57C616.601 140.798 618.507 141.331 618.863 141.687C618.364 140.901 617.335 139.328 617.215 139.328C617.095 139.328 615.917 139.003 615.343 138.841V138.541H616.616L614.856 136.93C613.882 136.631 611.642 136.039 610.473 136.069C611.535 136.007 613.702 135.889 613.882 135.919C612.134 134.945 607.672 133.305 603.807 134.533C603.37 134.833 602.436 135.605 602.196 136.294Z" fill="#5B8404"/>
<rect y="166" width="735" height="43" fill="#FFD130"/>
</svg>
